<?xml version="1.0" standalone="no"?>
<!DOCTYPE svg PUBLIC "-//W3C//DTD SVG 20010904//EN"
 "http://www.w3.org/TR/2001/REC-SVG-20010904/DTD/svg10.dtd">
<svg version="1.0" xmlns="http://www.w3.org/2000/svg"
 width="774.000000pt" height="774.000000pt" viewBox="0 0 774.000000 774.000000"
 preserveAspectRatio="xMidYMid meet">
<metadata>
Created by potrace 1.14, written by Peter Selinger 2001-2017
</metadata>
<g transform="translate(0.000000,774.000000) scale(0.100000,-0.100000)"
fill="#000000" stroke="none">
<path d="M2540 7220 c0 -5 -7 -10 -15 -10 -8 0 -15 -5 -15 -11 0 -5 5 -7 12
-3 7 4 8 3 4 -5 -4 -6 -13 -8 -19 -4 -20 12 -47 14 -67 3 -15 -8 -18 -7 -14 3
3 8 -2 14 -10 14 -8 0 -12 -6 -9 -13 5 -14 -22 -13 -34 1 -4 4 -2 5 6 0 10 -6
12 -4 6 5 -6 10 -11 9 -22 -5 -7 -11 -13 -13 -13 -7 0 7 -5 12 -11 12 -5 0 -8
-4 -4 -9 3 -5 0 -13 -6 -17 -7 -4 -9 -3 -6 3 9 14 -24 26 -36 14 -7 -7 -17 -6
-31 1 -19 10 -20 10 -7 -6 12 -15 12 -17 0 -14 -8 2 -20 10 -26 18 -12 13 -12
13 -7 -1 3 -11 -2 -19 -18 -24 -41 -13 -48 -13 -48 -4 0 5 -10 7 -22 5 -13 -3
-27 -5 -31 -5 -5 -1 -6 -5 -2 -10 3 -6 -4 -8 -17 -5 -62 14 -73 14 -58 5 25
-17 5 -21 -25 -5 -16 8 -26 12 -23 8 4 -4 3 -15 -3 -25 -11 -22 -40 -14 -33 9
3 9 -2 6 -10 -8 -9 -14 -15 -19 -16 -10 0 11 -3 11 -12 2 -14 -14 -32 -16 -23
-2 3 6 -1 7 -9 4 -9 -3 -14 -10 -11 -14 3 -5 0 -12 -6 -16 -7 -4 -9 -3 -5 4 3
6 2 13 -4 17 -5 3 -10 1 -10 -6 0 -9 -3 -9 -14 0 -11 10 -19 7 -36 -11 -15
-17 -19 -18 -15 -5 4 10 2 17 -4 17 -6 0 -11 -6 -11 -14 0 -8 -5 -18 -12 -22
-7 -4 -8 -3 -4 4 4 7 1 12 -9 12 -9 0 -13 -4 -10 -10 3 -5 1 -10 -4 -10 -6 0
-11 5 -11 11 0 5 -5 7 -10 4 -6 -4 -8 -11 -5 -16 4 -5 1 -9 -4 -9 -6 0 -11 5
-11 10 0 6 -5 10 -12 10 -6 0 -8 -3 -5 -7 12 -12 -14 -31 -35 -25 -13 3 -19 1
-15 -5 3 -5 0 -10 -8 -10 -8 0 -12 4 -9 9 3 4 -2 5 -10 2 -9 -3 -13 -11 -9
-18 3 -6 1 -6 -8 2 -16 15 -29 16 -29 1 0 -5 6 -7 13 -3 6 4 8 3 4 -1 -12 -13
-40 -15 -53 -4 -9 8 -11 4 -7 -13 3 -13 1 -19 -4 -13 -11 14 -33 17 -33 4 0
-5 -4 -7 -10 -4 -5 3 -10 1 -10 -6 0 -10 -3 -10 -12 -1 -19 19 -32 14 -17 -5
7 -10 9 -15 5 -11 -5 4 -16 2 -24 -5 -11 -8 -14 -8 -9 0 4 6 3 15 -3 18 -6 4
-9 1 -8 -7 2 -7 -3 -12 -11 -10 -9 2 -11 -3 -7 -15 5 -16 4 -15 -9 1 -9 12
-15 15 -15 7 0 -9 -8 -11 -27 -6 -27 6 -27 6 -8 -9 l20 -15 -20 2 c-13 1 -19
-3 -17 -13 3 -10 -3 -9 -19 5 -12 11 -19 15 -16 8 4 -6 3 -14 -3 -18 -5 -3
-10 -2 -10 4 0 6 -7 8 -16 4 -11 -4 -12 -8 -4 -13 8 -5 6 -9 -6 -14 -10 -4
-21 -1 -26 6 -6 10 -8 10 -9 -2 -1 -8 -1 -17 -1 -20 0 -3 -11 -7 -26 -8 -14
-1 -31 -7 -37 -14 -7 -8 -7 -9 2 -4 6 3 14 2 17 -3 7 -10 -13 -9 -29 1 -6 4
-17 2 -25 -4 -12 -8 -12 -9 3 -4 11 4 16 2 12 -5 -4 -5 -17 -9 -28 -8 -24 3
-91 -34 -81 -44 3 -3 -3 -3 -14 0 -11 2 -23 0 -26 -6 -5 -7 0 -9 11 -5 17 5
17 5 0 -6 -9 -6 -22 -8 -27 -5 -6 3 -10 0 -10 -7 0 -10 -2 -10 -9 1 -6 9 -11
10 -15 2 -4 -6 -4 -15 -1 -21 4 -6 -1 -7 -11 -3 -11 4 -15 3 -10 -5 4 -7 -2
-9 -20 -6 -20 4 -25 1 -21 -9 3 -7 -1 -14 -9 -15 -8 -1 -21 -3 -29 -4 -8 -1
-15 -7 -15 -14 0 -7 -4 -16 -10 -19 -6 -4 -7 1 -3 11 4 12 3 15 -5 10 -7 -4
-12 -14 -12 -22 0 -8 -4 -12 -10 -9 -5 3 -10 1 -10 -5 0 -6 -5 -8 -12 -4 -9 5
-8 2 1 -9 12 -16 12 -17 -5 -10 -17 6 -18 5 -4 -12 14 -17 14 -18 -9 -6 -13 7
-21 8 -17 3 3 -6 0 -13 -6 -15 -10 -4 -10 -6 0 -6 13 -1 13 -2 -28 -50 -20
-24 -23 -40 -9 -57 9 -11 9 -14 0 -14 -7 0 -9 -4 -6 -10 3 -5 1 -10 -6 -10 -8
0 -8 -4 1 -15 11 -13 10 -14 -4 -9 -19 7 -19 9 -6 34 7 13 7 21 -2 26 -7 4 -8
3 -4 -4 4 -7 3 -12 -1 -12 -5 0 -9 -28 -8 -62 0 -55 3 -63 19 -60 10 2 15 -1
12 -7 -4 -5 -2 -12 3 -16 6 -3 8 -12 4 -21 -3 -8 -10 -11 -17 -7 -7 5 -4 1 6
-9 10 -9 18 -26 18 -38 0 -12 4 -19 9 -15 5 3 12 1 15 -4 4 -5 1 -13 -5 -17
-8 -5 -9 -3 -4 6 6 9 4 11 -4 6 -9 -6 -9 -12 3 -25 9 -10 14 -20 11 -23 -3 -2
3 -4 13 -4 9 1 18 -3 19 -8 1 -5 6 -12 13 -16 6 -4 12 -16 13 -28 0 -11 5 -18
9 -16 5 3 6 9 4 13 -3 4 1 8 9 8 10 0 11 -7 4 -26 -9 -25 -8 -25 6 -7 8 11 15
14 15 8 0 -7 7 -12 16 -12 13 0 14 -3 5 -14 -9 -11 -9 -16 0 -22 8 -4 9 -3 5
4 -7 11 8 17 29 12 6 -1 16 -3 23 -3 6 0 12 -4 12 -8 0 -4 -6 -9 -12 -12 -7
-3 -3 -4 8 -4 15 1 20 6 17 17 -3 9 -2 11 4 4 4 -6 18 -10 31 -9 12 1 28 -5
35 -14 6 -8 7 -12 1 -8 -6 3 -11 0 -11 -8 0 -8 5 -11 11 -7 20 12 48 13 40 0
-4 -7 -3 -8 5 -4 6 4 9 12 6 17 -4 5 -1 9 5 9 6 0 8 6 4 13 -4 6 -4 9 1 5 4
-4 15 -2 23 5 13 10 14 9 8 -1 -6 -10 -3 -13 10 -12 34 4 45 0 38 -12 -4 -7
-3 -8 5 -4 9 6 9 11 0 22 -14 17 2 19 20 2 11 -11 12 -10 6 1 -6 11 -4 13 8 8
17 -6 51 29 42 44 -3 4 1 9 9 12 10 4 13 -1 11 -19 -1 -13 1 -27 5 -29 5 -3 7
6 6 19 -2 17 3 26 15 29 11 3 19 11 19 19 0 10 -2 10 -10 -2 -5 -8 -12 -11
-17 -7 -12 13 16 25 53 22 18 -1 33 1 32 4 0 3 0 13 1 21 1 13 3 13 10 0 6 -8
7 -18 4 -24 -3 -5 -1 -6 6 -2 6 4 9 11 6 16 -8 12 6 41 16 34 5 -3 9 3 9 13 0
15 2 16 10 3 5 -8 10 -11 10 -7 0 4 10 2 23 -4 19 -11 20 -10 9 3 -10 12 -10
18 2 27 10 9 16 8 25 -2 6 -8 7 -18 3 -22 -4 -5 -1 -5 6 -1 9 6 9 12 0 29 -10
20 -10 21 5 8 12 -9 17 -10 17 -2 0 9 5 9 21 1 18 -10 19 -10 10 7 -8 16 -6
19 12 19 16 -1 21 4 19 19 -2 15 -1 17 6 6 6 -8 15 -10 22 -6 9 5 11 4 6 -3
-5 -8 -2 -10 8 -6 9 3 13 11 9 18 -4 6 1 5 10 -3 9 -7 14 -18 10 -24 -3 -6 -1
-7 6 -3 6 4 9 11 7 15 -3 4 11 14 30 21 24 10 33 18 29 29 -5 13 -4 14 6 4 15
-15 33 -17 24 -4 -3 5 0 13 6 17 8 4 9 3 5 -4 -4 -7 -2 -12 3 -12 6 0 11 5 11
10 0 6 5 10 11 10 5 0 7 -6 3 -12 -6 -10 -5 -10 8 -1 8 7 19 9 23 5 5 -4 5 -2
2 4 -7 13 17 27 27 16 4 -3 15 -6 25 -7 23 -2 17 22 -7 29 -13 4 -12 5 3 4 11
0 23 1 28 2 4 1 10 3 15 4 4 1 13 5 20 10 12 7 12 4 2 -15 l-11 -24 20 24 c16
18 21 19 21 7 0 -9 4 -16 10 -16 5 0 7 6 4 14 -3 8 0 17 7 22 7 4 10 3 6 -2
-3 -6 4 -16 16 -24 20 -12 21 -12 9 2 -11 13 -10 16 5 14 10 0 17 4 16 10 -1
6 10 9 29 6 23 -4 29 -2 23 8 -5 8 -4 11 3 6 6 -3 15 2 21 11 6 10 11 13 11 8
0 -6 -5 -16 -11 -22 -8 -8 -7 -13 2 -18 7 -5 10 -4 6 2 -3 5 10 16 29 25 23
10 36 12 41 5 4 -6 1 -7 -7 -2 -8 5 -11 4 -6 -3 4 -6 13 -9 21 -6 8 4 13 9 11
13 -3 4 0 13 6 21 8 13 9 12 5 -2 -3 -9 0 -21 7 -27 10 -9 13 -6 11 14 -4 30
-2 30 16 8 10 -11 10 -14 2 -9 -7 4 -13 5 -13 2 0 -3 9 -10 20 -16 18 -10 19
-8 11 12 -8 21 -6 23 20 24 16 1 29 -3 29 -8 0 -5 -6 -6 -12 -2 -9 5 -9 2 1
-9 15 -18 26 -23 16 -7 -3 6 -1 10 4 10 6 0 10 5 9 11 -2 6 4 14 12 16 13 4
13 3 0 -6 -11 -7 -7 -10 18 -9 20 1 29 5 25 12 -4 6 1 5 10 -3 14 -11 17 -11
17 0 0 8 6 5 15 -7 13 -18 14 -18 9 6 -4 19 -3 22 5 10 5 -8 13 -11 16 -8 4 4
18 2 32 -3 21 -8 26 -6 30 12 4 15 8 17 14 8 6 -10 11 -10 25 2 10 8 15 9 11
2 -5 -7 -1 -12 10 -11 10 0 27 -3 38 -7 16 -6 15 -3 -5 15 l-25 21 25 -12 c14
-7 28 -17 32 -23 5 -7 8 -7 8 2 0 8 6 12 13 9 6 -2 20 0 31 5 13 7 16 7 12 -1
-9 -14 7 -14 21 0 9 9 10 7 6 -9 -3 -12 -10 -19 -16 -15 -6 3 -7 1 -3 -5 10
-17 13 -15 31 16 9 15 14 19 11 10 -3 -9 2 -19 10 -22 10 -4 12 -2 8 6 -5 7
-2 9 9 5 11 -4 18 1 22 14 5 16 10 18 21 8 7 -6 12 -15 9 -19 -3 -4 1 -10 9
-13 15 -6 16 8 2 33 -4 8 1 5 12 -7 20 -23 33 -29 31 -15 -3 18 2 32 12 32 6
0 7 -5 2 -12 -11 -19 -12 -38 -2 -38 5 0 9 6 9 14 0 8 4 17 9 21 6 3 8 -3 6
-13 -2 -11 3 -19 11 -19 8 0 13 6 10 13 -5 13 19 13 31 -1 4 -4 3 -5 -3 -2 -6
3 -11 0 -11 -7 0 -11 4 -12 18 -3 10 6 15 16 11 22 -3 5 2 4 11 -4 9 -7 17
-11 17 -7 0 4 15 -1 33 -10 31 -16 31 -16 17 1 -14 17 -13 17 6 7 16 -8 24 -8
35 1 7 7 5 2 -6 -11 l-18 -22 34 13 c43 17 61 16 66 -3 4 -13 3 -13 -6 0 -8
12 -10 11 -8 -7 1 -15 5 -19 12 -13 7 6 16 5 24 -3 11 -10 11 -8 3 8 -9 17 -7
21 7 21 14 0 17 -8 15 -36 l-2 -35 14 28 c8 15 19 25 24 22 6 -4 10 -1 10 6 0
7 3 9 6 6 4 -4 1 -14 -7 -23 -13 -16 -12 -16 18 0 30 15 32 15 26 -1 -4 -11
-3 -14 5 -9 7 4 27 -4 45 -18 30 -23 35 -24 53 -12 13 10 25 11 35 5 17 -11
32 -12 25 -1 -2 4 4 8 14 8 10 0 16 -4 13 -9 -3 -5 5 -6 18 -2 20 5 21 4 9 -5
-12 -10 -11 -11 8 -7 18 4 21 3 12 -8 -8 -9 -6 -14 6 -19 21 -8 24 -8 24 5 0
5 -5 7 -12 3 -6 -4 -8 -3 -5 4 9 13 30 10 50 -6 12 -10 16 -10 20 0 4 8 6 7 6
-4 1 -10 7 -18 14 -18 9 0 8 -3 -2 -9 -9 -6 -5 -8 14 -8 16 0 22 3 15 7 -8 5
-7 9 5 13 9 4 14 3 11 -2 -10 -16 22 -32 53 -28 17 3 31 2 31 -1 0 -4 4 -13 9
-21 8 -13 12 -13 27 0 16 12 17 12 11 -3 -4 -12 -2 -15 9 -11 9 3 14 0 12 -8
-2 -9 4 -13 16 -11 18 3 19 2 5 -15 -13 -16 -13 -17 3 -4 10 7 15 17 12 22 -3
5 0 9 5 9 6 0 11 -5 11 -11 0 -5 4 -8 9 -4 5 3 12 1 16 -5 4 -6 11 -8 16 -5 5
3 6 0 3 -8 -3 -8 3 -20 13 -28 16 -13 17 -12 4 4 -13 16 -12 17 10 9 13 -5 31
-7 39 -4 13 4 13 3 2 -11 -11 -13 -10 -15 9 -10 13 4 20 2 16 -3 -3 -6 4 -16
16 -24 20 -12 21 -12 8 3 -18 23 -9 21 19 -3 25 -22 45 -27 34 -9 -11 18 29
-7 49 -31 10 -11 22 -18 27 -15 6 3 10 -1 10 -9 0 -8 9 -18 20 -21 11 -4 18
-11 15 -16 -4 -5 -4 -9 0 -9 3 0 10 10 16 23 8 18 9 16 4 -13 -3 -25 -2 -31 5
-20 13 20 32 19 48 -2 7 -10 18 -16 23 -13 5 4 9 -1 9 -10 0 -9 -4 -14 -8 -11
-5 3 -9 -1 -9 -9 0 -12 3 -12 16 -2 12 10 14 9 8 -6 -4 -11 -3 -16 4 -12 6 4
8 13 5 21 -3 8 1 14 9 14 8 0 14 -6 13 -12 -2 -7 3 -12 10 -10 6 1 12 -8 13
-20 0 -13 3 -17 6 -10 9 22 23 12 19 -13 -3 -15 -1 -23 5 -20 5 4 7 11 4 16
-4 5 -2 9 4 9 14 0 32 -35 23 -45 -4 -5 -1 -5 6 -1 6 4 12 3 12 -2 0 -5 6 -9
13 -10 58 -8 62 -9 62 -30 0 -11 6 -27 13 -33 6 -7 12 -10 12 -7 0 4 12 1 27
-7 15 -8 31 -11 37 -8 6 4 6 0 -1 -8 -10 -12 -9 -18 7 -32 11 -9 20 -12 20 -7
0 16 27 12 34 -5 3 -8 -2 -19 -12 -24 -22 -13 -6 -14 17 -1 14 7 23 4 37 -11
11 -12 19 -24 19 -28 0 -3 5 -5 12 -5 7 1 11 -3 10 -10 -1 -6 4 -10 10 -9 18
4 52 -49 35 -55 -6 -2 -12 -8 -12 -13 0 -6 6 -7 13 -2 6 4 17 8 24 9 13 2 26
-23 18 -37 -4 -5 2 -6 12 -2 16 6 17 5 3 -12 -9 -11 -10 -16 -2 -11 6 4 12 2
12 -3 0 -6 7 -11 16 -11 8 0 12 -4 9 -10 -3 -5 -1 -10 5 -10 6 0 8 -4 5 -10
-3 -6 1 -7 9 -4 10 4 16 1 16 -9 0 -8 -5 -17 -12 -19 -7 -3 -5 -7 6 -11 9 -4
15 -3 12 1 -2 4 -1 14 5 22 7 12 9 12 9 -3 0 -12 4 -16 12 -11 7 4 4 -3 -7
-17 -15 -18 -16 -20 -2 -10 12 10 17 10 17 2 0 -7 5 -9 10 -6 6 3 11 1 11 -4
1 -6 2 -15 3 -20 0 -6 7 -16 14 -23 11 -11 12 -10 6 7 -7 17 -6 18 8 5 9 -8
14 -18 11 -22 -2 -5 1 -8 8 -8 8 0 9 -3 0 -13 -15 -19 -2 -28 22 -16 13 7 17
7 13 1 -3 -6 -2 -13 4 -17 6 -4 8 -10 5 -15 -3 -4 -2 -15 1 -24 5 -12 10 -14
19 -6 11 9 12 6 7 -12 -5 -20 -3 -21 10 -10 14 11 16 10 11 -7 -3 -12 -1 -21
6 -21 6 0 11 -9 11 -20 0 -11 5 -20 11 -20 5 0 7 5 3 12 -4 7 -3 8 4 4 6 -4 8
-14 5 -24 -6 -15 -5 -16 12 -2 11 9 16 10 11 3 -8 -15 17 -56 28 -45 4 4 7 3
6 -3 -6 -27 1 -56 11 -49 8 4 9 0 4 -15 -5 -16 -3 -20 9 -15 9 3 16 1 16 -6 0
-6 5 -8 12 -4 7 4 8 3 4 -4 -4 -6 -12 -10 -19 -8 -7 1 -9 1 -4 -1 4 -3 5 -9 1
-14 -3 -5 -2 -9 3 -8 23 4 31 -3 26 -23 -4 -19 -3 -20 6 -8 9 13 11 13 11 -2
0 -10 9 -23 19 -30 18 -11 18 -12 2 -27 -9 -9 -11 -12 -4 -7 8 5 15 3 19 -8 3
-9 11 -13 16 -10 6 4 5 -4 -2 -16 -10 -18 -9 -21 1 -15 9 6 11 3 6 -8 -3 -9
-2 -19 4 -22 5 -4 7 -10 5 -14 -3 -4 -1 -13 5 -21 6 -10 9 -11 9 -2 0 6 4 12
10 12 5 0 9 -6 7 -12 -1 -7 4 -12 11 -10 8 1 11 -1 8 -6 -3 -5 1 -18 8 -28 10
-13 11 -23 4 -31 -6 -8 -7 -13 -1 -13 5 0 10 -7 11 -15 1 -8 3 -22 4 -30 1 -8
5 -12 10 -9 4 3 8 -2 8 -10 0 -9 -6 -16 -12 -16 -7 -1 3 -10 22 -21 19 -11 28
-18 19 -16 -9 3 -16 -1 -16 -8 0 -7 6 -11 12 -8 7 2 15 -5 18 -16 3 -15 1 -18
-12 -14 -9 3 -12 1 -6 -4 6 -4 11 -15 13 -23 2 -8 8 -16 13 -18 5 -2 9 -8 9
-14 0 -6 -8 -7 -17 -3 -14 5 -15 4 -6 -6 10 -10 16 -9 29 2 12 9 15 10 10 2
-4 -8 -2 -13 4 -13 7 0 10 -7 7 -15 -4 -8 -2 -17 2 -19 5 -3 9 -17 9 -31 0
-13 -4 -22 -9 -20 -4 3 -10 1 -13 -4 -7 -11 13 -9 32 2 15 10 15 2 1 -25 -9
-17 -9 -20 4 -15 10 4 14 0 12 -11 -1 -9 2 -23 8 -29 5 -8 5 -13 0 -13 -5 0
-15 6 -23 13 -8 6 -7 3 3 -9 18 -22 23 -39 8 -29 -5 3 -13 0 -17 -7 -4 -7 -4
-10 1 -6 4 4 15 2 23 -5 13 -10 14 -9 7 3 -7 13 -6 13 7 2 9 -7 15 -21 13 -30
-1 -9 0 -21 3 -27 4 -5 5 -22 3 -37 -1 -16 2 -28 9 -28 6 0 8 -5 5 -10 -4 -6
-11 -7 -17 -4 -6 4 -6 -2 1 -15 7 -11 17 -21 24 -21 8 0 7 4 -3 10 -8 5 -12
11 -9 15 3 3 14 -4 25 -16 10 -11 14 -20 9 -19 -21 5 -36 -1 -30 -10 4 -6 12
-8 18 -4 7 3 3 -2 -7 -10 -19 -15 -12 -22 17 -17 5 1 6 -3 3 -8 -4 -5 -1 -13
4 -16 7 -5 5 -12 -7 -22 -10 -8 -11 -11 -3 -7 13 7 13 5 1 -9 -12 -15 -11 -17
3 -17 10 0 14 -5 11 -10 -4 -6 -11 -8 -16 -5 -5 3 -6 -1 -3 -9 3 -9 11 -13 18
-9 6 3 8 3 4 -2 -4 -4 -2 -15 5 -23 8 -11 8 -14 0 -9 -6 4 -13 4 -16 0 -2 -5
-2 -1 0 7 3 12 2 12 -8 3 -9 -9 -9 -16 -1 -26 7 -8 8 -18 4 -22 -4 -5 -1 -5 6
-1 7 4 9 13 5 19 -4 7 0 6 10 -2 18 -15 23 -26 7 -16 -17 11 -11 -7 8 -21 16
-12 16 -12 -3 -11 -11 1 -23 7 -27 12 -5 7 -8 6 -8 -1 0 -5 9 -20 20 -32 21
-22 27 -37 10 -27 -5 3 -10 1 -10 -4 0 -6 4 -11 9 -11 5 0 12 -7 15 -16 5 -13
4 -14 -7 -6 -10 9 -14 8 -14 -3 0 -8 4 -15 8 -15 11 0 17 -34 9 -55 -5 -13 -2
-27 9 -40 15 -18 15 -19 -1 -7 -14 11 -16 11 -11 -6 2 -11 -1 -30 -7 -42 -9
-17 -9 -21 0 -15 7 4 11 1 9 -6 -3 -27 1 -50 9 -46 4 3 7 -14 7 -38 1 -24 -3
-41 -7 -39 -4 3 -8 -2 -8 -10 0 -9 5 -16 12 -16 6 0 8 -3 4 -7 -4 -5 -14 1
-22 11 -8 11 -14 16 -14 11 0 -5 7 -17 17 -27 15 -17 15 -18 -3 -19 -18 0 -18
-1 1 -9 11 -5 14 -9 7 -9 -10 -1 -10 -6 -1 -23 10 -18 8 -24 -7 -35 -14 -10
-14 -13 -3 -14 8 -1 19 0 24 1 6 1 0 -9 -13 -23 -17 -18 -20 -27 -11 -32 8 -5
10 -4 5 3 -5 8 -1 10 10 5 11 -4 13 -8 6 -11 -20 -6 -34 -40 -20 -48 6 -4 8
-3 4 4 -3 6 -2 13 3 17 6 3 8 -3 6 -15 -6 -30 -15 -41 -27 -34 -7 4 -8 2 -4
-5 4 -6 11 -9 16 -6 5 3 12 1 15 -5 4 -6 3 -10 -2 -9 -23 4 -31 -3 -26 -22 4
-16 8 -17 14 -7 6 9 9 9 9 1 0 -6 -4 -15 -10 -18 -5 -3 -10 -11 -10 -16 0 -6
5 -7 12 -3 7 4 8 3 4 -5 -6 -9 -11 -9 -21 -1 -8 7 -16 7 -19 2 -3 -6 1 -13 10
-16 8 -3 12 -10 9 -16 -4 -6 -10 -8 -14 -6 -3 3 -7 -4 -7 -14 0 -12 4 -16 11
-10 7 6 11 2 11 -10 0 -10 -5 -16 -10 -13 -5 4 -7 -3 -4 -15 4 -12 2 -20 -3
-16 -5 3 -6 -2 -3 -10 4 -10 1 -16 -7 -16 -12 0 -12 -2 0 -9 9 -6 10 -11 2
-15 -15 -9 -14 -46 1 -46 6 0 8 -3 5 -6 -4 -4 -13 -1 -22 6 -13 11 -14 10 -9
-5 5 -13 4 -16 -4 -11 -8 5 -10 2 -5 -9 4 -13 7 -14 14 -3 5 8 7 3 5 -15 -1
-15 -6 -30 -11 -35 -4 -4 -5 -2 -1 5 3 6 2 14 -3 17 -5 4 -8 -1 -7 -10 1 -8 8
-19 15 -23 10 -6 9 -10 -4 -15 -10 -3 -13 -11 -9 -18 5 -8 0 -7 -11 2 -10 8
-16 9 -11 3 4 -7 2 -22 -5 -34 -7 -15 -8 -24 -1 -28 14 -8 9 -44 -6 -49 -7 -2
-12 -8 -12 -13 0 -6 4 -7 10 -4 5 3 10 1 10 -4 0 -10 -14 -15 -33 -12 -5 1 -6
-3 -3 -8 4 -5 2 -12 -4 -16 -7 -4 -6 -13 1 -27 7 -14 7 -18 0 -14 -6 4 -9 -4
-6 -23 2 -22 0 -28 -10 -25 -7 3 -16 0 -21 -7 -4 -7 -3 -10 4 -5 6 3 13 2 16
-3 3 -5 -3 -11 -14 -14 -17 -4 -19 -9 -10 -32 5 -14 6 -24 2 -21 -4 2 -14 -4
-21 -16 -7 -11 -8 -17 -3 -14 6 3 12 0 15 -8 4 -9 -2 -12 -19 -10 -13 1 -22
-2 -18 -7 3 -5 10 -7 15 -4 5 3 6 -1 3 -9 -3 -9 -10 -16 -15 -16 -5 0 -9 -7
-9 -16 0 -9 -5 -12 -12 -8 -10 6 -10 4 0 -7 17 -18 15 -30 -4 -22 -14 5 -15 3
-4 -18 12 -22 12 -23 -4 -10 -14 12 -16 12 -10 -4 5 -12 4 -16 -4 -11 -7 4 -9
-2 -6 -19 3 -17 0 -25 -10 -25 -20 0 -29 -17 -15 -26 8 -5 9 -3 4 6 -5 9 -4
11 4 6 6 -4 9 -12 5 -17 -3 -5 -10 -6 -16 -3 -7 5 -9 0 -6 -14 4 -12 2 -25 -3
-28 -5 -3 -6 -11 -2 -17 4 -8 1 -7 -9 1 -10 8 -19 9 -22 3 -3 -5 -1 -11 6 -13
6 -2 8 -10 4 -17 -5 -7 -15 -10 -25 -6 -13 5 -14 4 -3 -6 17 -18 15 -26 -8
-32 -13 -3 -18 -10 -14 -21 4 -11 0 -16 -12 -16 -14 0 -16 -2 -6 -9 11 -6 10
-11 -3 -24 -9 -9 -13 -22 -9 -28 5 -8 3 -9 -6 -4 -9 6 -12 4 -8 -7 4 -8 0 -15
-8 -15 -7 0 -11 4 -8 8 2 4 0 10 -5 13 -5 4 -7 -7 -4 -25 4 -27 2 -31 -13 -25
-10 4 -15 4 -11 0 4 -4 2 -14 -5 -21 -9 -11 -9 -16 0 -22 7 -4 -1 -12 -19 -20
-17 -7 -28 -16 -25 -19 3 -2 13 1 22 9 16 13 16 12 4 -8 -8 -12 -18 -19 -22
-17 -4 3 -8 -2 -8 -11 0 -9 -4 -13 -10 -10 -5 3 -10 -1 -10 -9 0 -9 -5 -16
-11 -16 -6 0 -8 -7 -5 -16 4 -10 2 -13 -6 -8 -8 5 -9 2 -4 -11 5 -15 4 -16 -9
-5 -13 11 -14 10 -9 -4 3 -9 2 -16 -4 -16 -6 0 -12 6 -15 13 -2 6 -4 0 -4 -15
0 -17 4 -25 10 -21 6 3 7 1 3 -6 -6 -9 -11 -9 -22 0 -12 10 -13 9 -7 -6 5 -14
3 -17 -9 -12 -12 4 -14 1 -10 -15 4 -17 2 -20 -13 -14 -15 5 -16 4 -5 -9 11
-13 10 -14 -6 -9 -10 4 -16 4 -12 -1 4 -4 -3 -16 -17 -27 -13 -10 -25 -28 -27
-41 -2 -12 -15 -28 -31 -35 -16 -8 -31 -20 -34 -28 -3 -8 -10 -11 -15 -8 -6 4
-4 -4 3 -17 11 -22 11 -23 -4 -10 -15 12 -17 11 -17 -5 0 -16 -2 -17 -11 -4
-9 12 -10 11 -6 -7 4 -17 1 -21 -15 -18 -16 4 -18 2 -7 -11 10 -12 9 -13 -5
-8 -11 4 -16 2 -14 -7 2 -10 -5 -13 -22 -11 -19 2 -22 0 -10 -8 8 -5 10 -10 4
-10 -7 0 -14 -9 -17 -21 -4 -14 -10 -18 -18 -13 -9 5 -10 2 -5 -11 5 -15 4
-16 -8 -6 -13 11 -15 9 -11 -8 2 -11 -1 -24 -7 -27 -7 -4 -8 -2 -4 4 10 16 -2
15 -19 -2 -8 -7 -11 -17 -7 -21 4 -5 -1 -5 -12 -1 -14 5 -17 3 -12 -10 4 -11
2 -15 -7 -11 -8 3 -14 -3 -14 -15 -1 -11 -10 -27 -20 -35 -10 -8 -12 -11 -5
-8 11 6 12 3 3 -12 -6 -11 -7 -24 -3 -28 4 -5 0 -6 -10 -2 -26 9 -29 -4 -6
-37 l22 -31 -25 22 c-24 22 -25 22 -25 3 0 -11 3 -20 7 -20 4 0 9 -11 11 -25
5 -22 3 -23 -16 -13 -18 9 -19 9 -10 -3 6 -8 10 -22 8 -32 -1 -11 0 -16 3 -13
3 3 12 -2 19 -12 9 -12 9 -22 2 -36 -8 -15 -7 -18 5 -13 12 5 14 1 8 -21 -9
-32 -4 -52 14 -52 7 0 19 -8 26 -17 12 -14 12 -16 0 -9 -9 6 -12 5 -9 -5 3 -8
12 -13 21 -13 9 1 14 -2 11 -7 -3 -5 1 -9 8 -9 9 -1 7 -5 -4 -14 -10 -7 -18
-17 -18 -22 0 -4 5 -3 12 4 7 7 19 12 28 12 13 0 13 -1 0 -10 -13 -8 -13 -11
-1 -22 10 -10 12 -10 7 0 -11 19 20 15 35 -5 13 -17 13 -17 -6 -3 -19 14 -19
14 -6 -2 7 -10 17 -15 22 -12 5 3 12 -2 15 -11 5 -13 9 -13 22 -3 12 10 14 10
8 1 -4 -8 -2 -13 4 -13 6 0 8 -5 4 -12 -5 -9 -2 -9 9 1 14 11 17 11 17 0 0
-11 2 -11 10 1 7 10 10 11 10 2 0 -12 38 -11 60 3 5 3 7 0 4 -9 -3 -8 -14 -13
-25 -11 -10 2 -19 0 -19 -4 0 -4 28 -7 63 -6 38 1 68 -4 78 -12 13 -11 16 -11
16 2 0 8 -4 12 -8 10 -4 -3 -9 2 -13 10 -6 17 10 30 19 15 5 -8 13 -6 26 6 10
9 19 14 19 9 0 -4 6 -2 13 4 8 6 17 8 20 4 4 -3 7 1 7 9 0 11 8 15 29 14 23
-2 28 2 26 15 -3 13 1 16 12 12 11 -4 14 -2 9 5 -10 16 6 15 23 0 11 -11 12
-10 6 1 -4 8 -2 17 6 23 11 8 10 8 -4 4 -12 -4 -17 -2 -14 6 2 7 10 12 16 10
6 -1 11 3 11 9 0 5 4 8 9 4 5 -3 13 0 17 6 4 8 3 9 -4 5 -7 -4 -12 -2 -12 4 0
8 10 10 28 6 l27 -6 -24 13 c-15 9 -20 17 -12 21 6 4 11 2 11 -3 0 -6 5 -11
11 -11 6 0 9 7 5 15 -3 8 -1 16 4 16 6 1 14 2 19 3 5 0 13 5 18 10 5 5 3 6 -4
2 -18 -10 -16 5 3 32 13 18 19 21 30 11 17 -14 19 2 2 20 -11 10 -9 11 6 5 13
-5 17 -4 13 3 -4 6 0 14 9 17 8 3 12 11 8 17 -4 8 -3 9 5 5 6 -4 8 -12 5 -18
-5 -7 -2 -8 5 -4 7 5 10 14 8 20 -3 7 4 18 14 25 12 7 17 17 12 24 -4 7 2 5
12 -3 15 -12 17 -12 10 -1 -6 11 -4 13 8 8 10 -3 17 -2 17 3 0 6 -4 10 -10 10
-5 0 -10 4 -10 9 0 11 19 9 40 -3 8 -5 11 -5 7 -1 -4 5 3 15 15 22 l23 14 -22
-6 c-17 -5 -23 -2 -23 10 0 10 5 13 12 9 8 -5 9 -2 5 10 -4 10 -3 15 3 11 6
-3 10 -1 10 6 0 6 8 9 20 6 11 -3 18 -1 15 3 -3 5 4 12 16 15 11 4 18 9 16 12
-3 2 -15 -1 -27 -7 -12 -6 -24 -9 -27 -7 -3 3 9 13 25 21 24 12 29 20 25 38
-5 23 -5 23 10 3 15 -19 16 -19 13 8 -3 23 -1 25 12 15 10 -8 13 -9 9 -2 -4 7
4 19 17 27 17 11 22 24 21 46 -1 24 1 28 11 20 10 -8 12 -6 9 13 -4 20 -3 21
8 6 12 -15 14 -15 27 5 20 32 21 46 2 41 -14 -5 -14 -4 1 6 9 6 23 8 30 4 6
-4 9 -4 5 1 -5 5 1 15 13 23 20 14 20 15 2 35 l-18 21 30 -18 30 -19 -19 21
c-12 14 -14 22 -7 22 7 0 9 5 5 13 -6 9 -4 9 8 -1 13 -10 18 -10 24 -1 4 7 3
9 -3 6 -6 -4 -13 2 -16 14 -4 15 -2 18 7 10 10 -8 12 -4 11 18 -1 21 2 28 12
24 11 -4 11 -8 1 -22 -11 -14 -11 -14 3 -4 9 7 20 9 25 5 5 -4 2 2 -7 13 -17
21 -15 45 3 45 6 0 4 -7 -3 -17 -13 -15 -12 -15 8 -2 12 7 19 16 15 19 -13 9
-13 32 -1 24 9 -5 10 -2 6 10 -5 13 -3 17 6 13 10 -4 13 2 11 19 -3 27 11 41
22 23 4 -7 3 -9 -4 -5 -11 7 -11 -20 1 -29 4 -3 5 -2 2 2 -3 3 0 12 6 20 9 9
8 17 0 27 -9 11 -9 16 0 22 8 4 9 3 5 -4 -4 -7 -3 -12 1 -12 5 0 14 9 21 21
12 19 11 20 -10 15 l-23 -6 23 12 c13 6 21 17 18 24 -8 20 13 28 32 13 13 -11
12 -8 -2 9 -18 21 -18 22 -1 22 18 0 18 1 -1 16 -10 8 -14 13 -8 10 7 -3 14 4
17 15 4 14 11 20 21 16 10 -4 13 -1 9 8 -3 8 -10 12 -16 8 -6 -3 -2 5 9 19 10
14 22 21 25 16 4 -5 9 -3 12 6 3 8 1 18 -5 22 -7 4 -8 3 -4 -4 5 -8 1 -10 -9
-5 -13 4 -14 8 -4 14 7 4 17 5 22 2 6 -4 8 5 5 21 -5 23 -3 24 10 14 11 -9 14
-9 9 -1 -4 7 0 17 10 23 15 9 14 10 -7 5 -18 -5 -21 -4 -11 3 8 6 11 17 8 25
-4 11 -1 14 8 10 8 -3 12 -10 8 -16 -4 -6 -1 -7 6 -3 7 5 10 10 7 14 -3 3 2
11 12 18 16 12 15 13 -8 23 -18 7 -20 10 -7 10 10 1 20 8 23 16 4 8 10 12 15
9 5 -3 6 -10 3 -16 -5 -7 -2 -8 5 -4 9 6 8 13 -6 29 -17 20 -17 20 1 13 17 -6
17 -5 5 11 -12 15 -12 16 3 10 12 -4 15 -2 11 8 -3 8 -8 13 -12 10 -4 -2 -8 2
-8 10 0 8 7 17 14 19 9 4 11 1 7 -6 -5 -7 -3 -8 5 -4 9 6 8 13 -6 29 -9 12
-11 16 -3 9 24 -21 34 -13 14 10 -16 19 -16 20 -1 9 9 -8 21 -11 24 -7 4 4 1
11 -7 16 -12 8 -12 10 -1 10 8 0 11 6 7 16 -4 12 -1 14 13 9 11 -3 22 -2 25 3
3 6 -2 9 -11 8 -10 0 -17 6 -17 14 0 19 26 60 38 60 5 0 -1 -11 -13 -24 -19
-20 -20 -24 -6 -30 10 -3 14 -2 10 5 -4 5 -1 17 6 26 8 9 14 23 14 32 0 9 6
15 13 13 8 -1 11 2 7 8 -5 8 -12 7 -23 -3 -10 -8 -24 -17 -32 -21 -9 -5 -8 -2
2 7 10 8 14 17 10 21 -4 4 0 6 8 4 8 -2 15 4 16 12 0 8 4 23 8 32 4 9 5 21 2
26 -3 6 2 9 12 8 9 0 17 6 17 14 0 8 7 21 15 28 13 12 13 13 -3 8 -11 -3 -16
-2 -12 4 3 6 12 10 20 10 8 0 17 5 21 11 4 8 -1 9 -16 4 -15 -5 -20 -4 -16 4
4 6 15 11 24 11 13 0 13 2 -4 15 -14 11 -15 14 -2 9 18 -6 45 31 29 40 -5 4
-12 1 -14 -4 -3 -6 -4 -5 -3 2 2 7 9 12 16 10 8 -2 10 3 7 12 -4 10 3 21 21
32 15 8 20 13 11 11 -22 -7 -18 29 7 48 19 15 19 15 -1 9 -15 -4 -16 -3 -6 4
8 6 10 15 6 23 -5 8 1 6 12 -3 11 -10 24 -18 29 -18 5 0 4 4 -3 8 -7 4 -14 23
-18 42 -4 24 -2 30 4 20 5 -8 7 -18 5 -22 -3 -4 2 -5 11 -1 9 3 13 9 8 12 -5
3 -8 12 -7 19 1 6 2 17 3 22 0 6 6 10 12 10 5 0 8 -4 4 -9 -3 -5 -1 -12 4 -15
11 -7 9 13 -3 33 -7 11 -5 13 8 8 11 -4 15 -3 11 4 -4 6 0 18 9 28 14 15 14
18 1 18 -8 0 -11 -5 -8 -10 3 -6 1 -7 -6 -3 -8 6 -9 12 -2 20 7 9 7 17 -2 26
-6 8 -3 7 9 -3 20 -16 20 -16 18 13 -1 17 2 27 7 24 5 -3 17 0 26 6 17 10 17
10 -1 8 -10 -2 -21 3 -23 10 -3 7 4 12 17 12 17 0 19 3 10 19 -7 14 -7 22 1
27 6 3 8 15 6 26 -5 16 -3 17 9 7 8 -7 14 -8 13 -3 -4 23 3 33 21 29 12 -2 18
0 15 6 -4 5 -11 7 -16 4 -5 -4 -9 1 -9 10 0 9 5 13 11 9 8 -5 8 -1 0 14 -14
26 -14 35 -1 27 12 -8 29 33 24 58 -1 10 1 15 7 12 5 -4 7 -10 4 -15 -3 -5 0
-12 7 -16 7 -4 10 -4 6 1 -4 4 -2 15 5 23 7 10 8 13 1 9 -7 -4 -14 2 -17 13
-4 16 -2 18 13 10 13 -7 21 -6 26 2 5 7 3 8 -6 3 -10 -6 -12 -4 -7 8 3 9 1 19
-5 23 -7 5 -8 2 -3 -6 6 -9 4 -11 -4 -6 -12 8 -7 20 10 22 22 3 23 5 9 14 -12
8 -11 10 8 10 12 0 22 5 22 11 0 5 -4 8 -9 4 -6 -3 -9 3 -8 14 0 11 5 17 10
14 4 -3 7 3 5 13 -2 11 2 18 10 17 6 -2 12 6 12 16 0 11 5 23 11 27 6 3 9 15
6 25 -3 11 -1 17 3 14 5 -3 11 -1 15 5 3 5 1 10 -5 10 -8 0 -8 6 0 20 8 15 8
20 -2 21 -7 0 -3 5 10 11 14 7 21 17 17 26 -5 13 -3 13 12 1 10 -7 15 -9 11
-5 -4 5 -2 16 5 24 10 13 9 14 -2 7 -11 -6 -13 -4 -7 11 13 32 14 49 2 57 -7
6 -5 7 6 4 9 -3 22 2 30 11 7 8 8 13 2 9 -6 -3 -11 0 -11 7 0 9 7 12 16 8 14
-5 14 -3 3 10 -10 13 -10 18 -1 24 8 5 9 3 4 -6 -5 -9 -4 -11 4 -6 9 6 9 11 1
21 -8 9 -6 14 5 19 11 4 14 2 9 -7 -5 -9 -3 -8 7 1 12 11 12 14 -1 22 -10 7
-11 10 -2 10 6 0 12 5 12 11 0 5 -5 7 -12 3 -7 -4 -8 -3 -4 5 4 7 17 9 29 6
13 -4 17 -3 10 2 -17 13 -20 45 -3 50 13 4 13 3 0 -7 -10 -8 -11 -10 -2 -8 8
2 13 8 13 13 0 6 9 19 19 30 13 13 16 25 10 34 -5 9 -2 20 9 30 9 9 12 13 5 8
-7 -4 -14 -1 -18 8 -4 11 -2 14 6 9 8 -5 9 -2 4 11 -6 16 -4 16 11 4 9 -8 14
-9 10 -2 -4 7 0 16 9 21 10 5 18 22 20 38 2 21 1 25 -6 14 -7 -12 -9 -10 -7 7
0 12 5 19 11 16 5 -4 7 0 4 9 -4 8 -2 21 2 28 7 11 11 11 24 1 11 -9 16 -10
16 -2 0 6 -5 11 -11 11 -6 0 -8 14 -6 33 3 26 8 32 27 31 22 -1 22 0 4 14 -18
14 -18 14 2 10 13 -3 21 0 21 8 0 7 -4 11 -9 8 -10 -7 -5 33 7 43 4 5 5 1 0
-7 -5 -8 -4 -12 0 -7 14 12 14 36 2 33 -7 -2 -9 -1 -4 1 4 3 5 8 2 13 -3 4 3
6 14 3 10 -3 22 1 27 8 5 9 2 11 -9 6 -9 -3 -19 -2 -22 4 -4 5 -1 8 7 7 8 -2
13 6 12 19 -1 15 3 20 15 16 12 -3 10 0 -4 12 -20 17 -20 17 1 11 16 -5 23 0
33 20 10 22 9 28 -6 40 -17 13 -17 14 1 7 13 -4 17 -3 13 5 -4 6 1 13 10 15
15 4 16 5 2 6 -9 0 -20 9 -24 19 -5 14 -4 15 6 5 18 -18 32 -16 25 2 -3 8 -1
15 4 15 6 0 10 -5 10 -12 0 -6 3 -9 6 -5 3 3 2 12 -2 19 -14 22 -13 39 2 45 8
3 14 9 14 15 0 5 -5 6 -11 2 -6 -3 -3 5 6 19 10 15 13 32 9 39 -6 9 -3 9 9 -1
16 -13 17 -12 8 11 -8 23 -7 25 14 22 18 -1 22 2 18 14 -5 11 -3 13 8 7 9 -6
8 0 -5 19 -10 16 -12 25 -5 21 9 -6 11 -3 6 9 -4 11 -3 15 4 11 6 -4 9 0 7 10
-2 10 4 20 12 22 13 4 13 3 0 -7 -10 -8 -11 -10 -2 -8 8 2 14 8 14 13 0 6 5
19 10 29 9 16 7 18 -6 13 -14 -6 -15 -4 -2 16 14 20 16 26 16 43 0 4 6 2 13
-4 9 -8 12 -2 12 26 0 30 4 37 18 36 10 -1 16 3 14 10 -3 6 -11 10 -18 8 -8
-1 -6 5 6 15 21 19 25 39 11 61 -7 12 -4 12 14 2 20 -11 21 -10 11 9 -10 17
-9 20 4 15 11 -5 15 1 15 20 0 14 -5 26 -12 26 -6 0 -8 3 -5 6 4 4 13 1 22 -6
13 -11 14 -10 9 5 -6 14 -4 16 7 10 11 -7 11 -5 -1 10 -14 17 -13 18 8 13 19
-5 21 -4 11 8 -6 7 -16 11 -22 7 -6 -3 -7 -1 -3 6 4 6 12 8 18 5 7 -5 9 -1 5
9 -3 10 -2 17 3 17 6 0 10 -5 10 -12 0 -6 3 -8 6 -5 4 4 3 12 -3 19 -13 18
-10 44 6 40 7 -1 11 3 8 10 -2 7 5 18 16 24 17 10 18 12 3 17 -10 4 -15 3 -12
-1 3 -5 -1 -9 -9 -9 -11 0 -12 3 -3 14 6 8 17 12 24 9 17 -6 25 19 11 33 -9
10 -7 16 8 27 17 13 18 16 5 24 -12 8 -10 10 8 10 13 0 20 4 17 10 -4 6 -11 7
-17 4 -7 -4 -8 -2 -4 4 4 6 13 9 20 6 8 -3 17 0 22 7 4 8 3 10 -4 5 -7 -4 -12
-2 -12 3 0 6 6 11 13 11 8 0 7 4 -3 11 -12 8 -9 10 12 6 15 -2 25 0 22 4 -3 5
-12 9 -20 9 -8 0 -14 5 -14 11 0 5 4 8 9 4 5 -3 12 -1 16 5 3 5 2 10 -3 10 -5
0 -9 7 -9 15 0 11 4 12 14 3 7 -6 17 -8 21 -4 4 4 -1 12 -11 17 -14 8 -15 14
-6 30 6 12 8 23 5 26 -3 4 -1 12 5 19 7 8 7 14 -1 19 -8 5 -8 11 1 21 12 15
29 10 29 -9 0 -8 -3 -8 -9 2 -6 9 -11 10 -15 2 -4 -6 -4 -11 1 -12 4 0 15 -2
24 -4 9 -1 16 4 16 11 0 8 -4 14 -8 14 -10 0 -6 70 4 87 4 6 3 15 -3 18 -7 4
-8 11 -1 18 9 12 11 18 11 38 0 8 6 7 17 -2 15 -13 15 -12 0 18 -9 17 -22 33
-29 36 -7 3 -3 4 9 4 12 -1 21 -5 20 -10 -1 -5 5 -12 13 -14 10 -3 11 -2 4 4
-6 4 -10 22 -8 40 2 22 -1 30 -10 27 -7 -3 -13 2 -13 10 0 8 6 12 16 9 13 -5
14 -3 4 8 -7 7 -13 18 -13 23 0 6 5 4 10 -4 7 -10 8 -1 6 33 -2 29 1 47 8 47
8 0 8 2 0 8 -6 4 -10 17 -9 29 1 12 -2 20 -7 17 -12 -8 -10 10 5 26 6 8 3 7
-9 -3 -11 -9 -25 -17 -30 -17 -5 0 -3 4 5 9 12 8 12 12 2 24 -7 9 -8 18 -2 21
10 7 8 83 -4 94 -4 4 -5 1 -3 -7 2 -7 -4 -16 -12 -18 -9 -3 -11 -1 -5 4 14 12
19 47 5 38 -7 -4 -10 0 -8 11 2 12 -2 18 -10 16 -8 -1 -11 2 -7 8 3 6 10 8 14
6 4 -3 8 1 8 8 0 8 -7 12 -16 9 -13 -4 -12 -2 2 10 17 14 17 15 0 22 -10 5
-22 7 -26 6 -5 -1 -6 3 -2 8 3 6 13 8 23 5 9 -3 6 1 -7 9 -15 9 -20 17 -13 21
15 9 -7 46 -28 47 -10 0 -8 3 5 9 19 8 19 9 -4 9 -15 1 -21 6 -18 14 3 8 1 20
-5 28 -8 11 -9 10 -4 -3 11 -34 -4 -18 -24 27 -12 26 -25 43 -31 39 -7 -4 -7
1 0 15 10 17 9 21 -4 21 -8 0 -15 9 -15 20 0 11 -5 20 -11 20 -5 0 -7 -5 -3
-12 4 -7 3 -8 -4 -4 -6 4 -8 14 -5 23 4 11 3 14 -5 9 -8 -5 -12 0 -12 14 0 12
-4 18 -10 15 -5 -3 -10 -1 -10 5 0 6 -4 9 -9 5 -5 -3 -11 5 -13 17 -2 13 -9
24 -15 24 -25 3 -25 4 -12 21 8 9 9 14 3 10 -7 -4 -15 0 -18 8 -3 8 -11 14
-18 13 -7 -2 -12 2 -13 9 0 6 -4 15 -9 20 -5 5 -6 3 -2 -4 4 -7 2 -13 -3 -13
-6 0 -11 4 -11 8 0 5 -7 17 -15 28 -15 19 -15 19 -9 -1 3 -11 -3 -5 -13 13
-15 26 -21 30 -32 20 -11 -10 -12 -10 -7 0 4 7 1 12 -7 12 -8 0 -21 8 -28 18
-13 16 -13 16 6 2 18 -14 19 -13 8 1 -7 9 -10 18 -8 21 3 3 -6 3 -21 0 -19 -3
-25 -1 -20 7 10 15 -7 14 -23 -1 -11 -11 -13 -10 -8 5 4 11 1 17 -8 17 -8 0
-15 4 -15 9 0 5 -9 7 -20 4 -12 -3 -20 0 -20 6 0 7 5 9 13 5 8 -5 7 -2 -2 9
-8 10 -16 15 -19 13 -5 -6 -63 24 -73 37 -3 4 -10 7 -15 6 -26 -5 -45 2 -38
14 5 9 4 9 -6 0 -9 -8 -16 -7 -31 5 -23 20 -59 26 -60 9 0 -6 -4 -3 -9 8 -5
11 -9 14 -9 6 -1 -10 -7 -10 -27 4 -15 9 -24 12 -20 7 4 -7 -8 -10 -34 -9 -34
2 -39 5 -34 22 4 15 3 16 -4 6 -5 -7 -12 -9 -15 -4 -3 5 -23 9 -44 8 -30 -1
-37 -5 -35 -18 2 -9 -2 -17 -8 -17 -5 0 -9 3 -9 8 5 28 -2 35 -16 16 -8 -10
-15 -14 -15 -9 0 6 -5 3 -11 -5 -8 -12 -9 -10 -4 7 6 22 -7 26 -34 9 -10 -6
-12 -5 -7 2 4 7 2 12 -3 12 -6 0 -11 -8 -12 -17 0 -15 -2 -15 -7 -3 -9 19 -62
26 -62 8 0 -10 -3 -9 -10 2 -8 13 -13 13 -31 2 -11 -8 -18 -9 -14 -3 3 6 2 11
-4 11 -5 0 -12 -6 -14 -12 -4 -10 -6 -10 -6 0 -1 6 -10 12 -20 12 -11 0 -22
-6 -24 -12 -4 -10 -6 -10 -6 0 -1 6 -7 12 -15 12 -8 0 -17 -6 -19 -12 -4 -10
-6 -9 -6 1 -1 11 -4 11 -18 0 -9 -8 -14 -9 -10 -3 8 14 -26 14 -35 0 -5 -8 -8
-7 -8 2 0 14 -36 16 -45 2 -3 -5 -12 -10 -18 -10 -8 0 -7 3 2 9 10 6 3 9 -22
9 -25 0 -37 -5 -40 -16 -4 -14 -5 -14 -6 1 0 10 -7 17 -13 14 -7 -2 -12 -9
-11 -15 2 -6 -4 -9 -13 -5 -13 5 -13 7 -2 14 9 6 6 9 -10 9 -13 0 -20 -4 -17
-10 3 -5 1 -10 -4 -10 -6 0 -11 6 -11 13 0 8 -4 7 -10 -3 -5 -8 -10 -10 -10
-5 0 6 -25 11 -56 11 -33 1 -50 -2 -42 -7 10 -7 9 -9 -4 -9 -10 0 -18 4 -18 8
0 4 -11 8 -25 8 -17 0 -24 -4 -21 -13 3 -7 1 -15 -5 -18 -5 -4 -9 -3 -8 2 3
19 -2 33 -12 33 -6 0 -8 -8 -5 -17 5 -16 5 -16 -6 -2 -17 20 -80 20 -90 -1 -5
-12 -7 -12 -7 3 -1 9 -6 17 -12 17 -5 0 -7 -6 -3 -12 6 -10 4 -10 -7 -2 -16
13 -51 15 -43 3 2 -5 12 -6 22 -3 14 5 14 4 3 -4 -16 -11 -41 -5 -41 10 0 6
-8 4 -17 -3 -9 -8 -14 -9 -10 -3 4 6 -8 10 -33 10 -21 0 -36 -4 -34 -8 3 -4 0
-8 -5 -8 -6 0 -11 4 -11 8 0 16 -30 9 -31 -7 0 -14 -1 -14 -7 -1 -8 17 -72 23
-72 8 0 -6 7 -8 14 -5 11 4 13 1 9 -10 -6 -14 -8 -14 -22 3 -9 10 -25 20 -36
21 -17 1 -17 -1 5 -18 l25 -20 -27 12 c-16 7 -28 15 -28 19 0 4 -15 7 -34 6
-24 -1 -31 -4 -25 -12 7 -8 0 -10 -21 -8 -23 3 -29 0 -24 -9 4 -6 -4 -2 -17 9
-26 23 -63 29 -55 9 6 -17 -54 -11 -65 6 -7 12 -9 11 -10 -1 -1 -8 -1 -19 0
-24 1 -5 -6 -3 -15 5 -9 8 -18 14 -18 13 -13 -11 -47 -23 -42 -15 4 6 2 11 -4
11 -6 0 -8 5 -4 13 6 9 4 9 -7 1 -8 -5 -26 -15 -41 -22 -23 -9 -26 -9 -21 3 3
8 8 13 12 11 4 -3 13 0 21 5 11 7 10 8 -8 6 -12 -2 -27 -8 -33 -14 -6 -6 -18
-9 -27 -6 -9 4 -13 2 -9 -4 3 -5 0 -10 -7 -10 -7 0 -13 6 -13 13 0 7 4 11 8 8
4 -2 10 -1 13 4 2 4 -15 8 -39 8 -30 0 -41 -4 -38 -13 3 -7 0 -13 -6 -13 -6 0
-11 6 -11 13 0 14 -43 18 -55 5 -3 -3 4 -5 16 -4 12 0 24 -6 26 -14 4 -12 3
-12 -5 -1 -7 10 -11 10 -17 1 -5 -8 -12 -6 -26 6 -22 20 -59 29 -59 15 0 -6 9
-8 20 -6 21 4 27 -9 10 -20 -5 -3 -10 -1 -10 6 0 8 -5 7 -17 -2 -11 -9 -14
-10 -9 -2 5 9 -1 12 -21 11 -15 -1 -32 -4 -38 -7 -17 -9 -35 -10 -35 0 0 5 -5
9 -11 9 -5 0 -7 -6 -3 -12 6 -10 5 -10 -7 -1 -12 10 -18 10 -29 0 -10 -9 -11
-9 -6 1 4 6 2 12 -4 12 -6 0 -9 3 -6 8 2 4 -35 7 -84 7 -66 0 -86 -3 -83 -12
7 -18 -2 -16 -23 5 -17 16 -17 16 -11 0 3 -10 2 -20 -3 -23 -6 -4 -10 1 -10 9
0 8 -5 18 -11 21 -6 4 -9 0 -7 -10 2 -10 -3 -20 -11 -23 -10 -3 -11 2 -6 19 4
16 3 20 -3 11 -5 -8 -25 -13 -48 -12 -22 1 -41 1 -44 0 -3 -1 -21 -4 -40 -5
-19 -2 -43 -6 -52 -10 -11 -4 -18 -3 -18 5 0 6 4 8 10 5 6 -4 7 1 3 11 -5 14
-8 13 -18 -7 l-13 -22 -7 23 c-6 18 -9 20 -16 9 -8 -12 -11 -12 -19 1 -8 12
-10 12 -10 1 0 -11 -3 -11 -17 0 -11 10 -14 10 -9 2 4 -7 3 -13 -3 -13 -5 0
-12 6 -14 13 -4 9 -6 9 -6 -1 -1 -7 -6 -10 -13 -6 -7 5 -9 2 -6 -7 4 -11 -2
-15 -23 -14 -29 0 -35 5 -22 18 3 4 11 2 18 -3 8 -7 12 -5 12 4 0 14 -21 16
-33 3 -11 -11 -26 -8 -19 3 10 16 -1 11 -16 -7 -8 -10 -9 -14 -2 -10 6 4 14 4
17 -1 2 -4 -9 -8 -25 -7 -34 0 -35 3 -11 22 15 12 14 12 -10 2 -15 -7 -25 -15
-23 -20 3 -4 1 -11 -5 -14 -6 -4 -9 -1 -8 7 2 7 -3 12 -10 10 -8 -1 -11 2 -7
8 3 6 10 8 15 5 5 -3 11 -1 14 4 10 15 -26 6 -38 -10 -10 -12 -66 -22 -66 -11
0 3 8 11 18 19 15 13 15 13 -5 4 -28 -14 -36 -14 -27 1 4 7 3 8 -5 4 -9 -6 -9
-11 1 -24 11 -13 10 -14 -9 -4 -16 9 -23 9 -27 -1 -4 -6 -4 -2 -2 11 4 18 2
21 -9 12 -10 -8 -15 -7 -19 2 -3 7 -3 2 1 -12 5 -23 5 -24 -12 -10 -11 9 -16
10 -11 3 4 -8 2 -13 -5 -13 -7 0 -9 8 -6 21 4 16 3 18 -9 8 -7 -6 -12 -15 -9
-18 2 -4 -2 -8 -10 -8 -18 0 -19 9 -2 27 6 8 0 5 -14 -8 -31 -27 -39 -28 -40
-4 0 14 -2 14 -9 -3 -5 -11 -9 -14 -9 -6 -1 11 -4 11 -16 1 -8 -7 -15 -9 -15
-5 0 4 -8 1 -17 -6 -11 -10 -14 -10 -9 -1 4 7 1 12 -8 12 -9 0 -16 5 -16 12 0
6 -7 3 -16 -8 -13 -16 -15 -16 -10 -2 3 10 0 20 -6 24 -7 4 -8 3 -4 -4 4 -8 0
-12 -11 -12 -15 0 -16 -2 -3 -11 13 -9 12 -10 -2 -5 -10 3 -20 1 -23 -4 -4 -6
-12 -10 -18 -9 -9 0 -8 2 1 6 6 2 10 9 6 14 -3 5 -13 5 -22 1 -9 -4 -51 -7
-92 -5 -41 1 -82 3 -90 3 -25 0 -55 -5 -68 -14 -8 -4 -11 -3 -10 4 2 7 -5 14
-14 15 -10 2 -18 -1 -18 -5 0 -19 -58 -7 -69 14 -10 19 -11 20 -6 1 4 -18 0
-20 -44 -20 -27 0 -47 4 -43 9 3 6 -3 6 -14 2 -10 -4 -30 -10 -44 -12 -20 -4
-23 -3 -12 7 6 7 12 17 12 22 0 5 -7 1 -16 -7 -8 -9 -19 -14 -24 -11 -5 3 -11
-1 -13 -7 -3 -7 -6 -2 -7 12 -1 23 -2 23 -10 5 -7 -18 -8 -18 -15 -3 -6 16 -9
16 -27 -5 l-19 -22 6 23 c4 12 4 22 1 22 -3 0 -6 -4 -6 -10z m1871 -15 c0 -5
-4 -11 -10 -13 -6 -2 -11 2 -11 8 0 10 -4 10 -15 0 -12 -10 -18 -10 -29 -1
-11 9 -16 9 -21 1 -5 -8 -11 -8 -17 -2 -6 6 -17 8 -24 5 -8 -3 -14 -1 -14 4 0
12 140 10 141 -2z m359 4 c0 -4 -6 -9 -13 -12 -8 -3 -14 0 -14 7 0 7 6 13 14
13 7 0 13 -4 13 -8z m332 -11 c-7 -7 -12 -8 -12 -2 0 14 12 26 19 19 2 -3 -1
-11 -7 -17z m131 1 c-8 -8 -13 -7 -18 2 -5 8 -4 10 3 5 7 -4 12 -2 12 5 0 7 3
9 7 6 4 -4 2 -12 -4 -18z m251 1 c-6 -6 -15 -5 -24 1 -13 9 -12 10 3 5 9 -3
17 0 17 6 0 6 3 8 7 5 4 -4 2 -12 -3 -17z m159 5 c-3 -9 -8 -14 -10 -11 -3 3
-2 9 2 15 9 16 15 13 8 -4z m47 5 c0 -5 -8 -10 -17 -10 -15 0 -16 2 -3 10 19
12 20 12 20 0z m157 -5 c0 -8 -4 -12 -9 -9 -5 3 -6 10 -3 15 9 13 12 11 12 -6z
m278 5 c-3 -5 -12 -10 -18 -10 -7 0 -6 4 3 10 19 12 23 12 15 0z m523 1 c2 -1
0 -6 -4 -12 -4 -8 -9 -8 -17 0 -7 7 -15 7 -22 1 -8 -7 -16 -6 -23 3 -9 11 -4
13 26 11 20 -1 38 -2 40 -3z m-2758 -11 c0 -5 -5 -10 -11 -10 -5 0 -7 5 -4 10
3 6 8 10 11 10 2 0 4 -4 4 -10z m215 -8 c-3 -3 -11 0 -18 7 -9 10 -8 11 6 5
10 -3 15 -9 12 -12z m1265 8 c0 -5 -2 -10 -4 -10 -3 0 -8 5 -11 10 -3 6 -1 10
4 10 6 0 11 -4 11 -10z m1480 -35 c11 -13 10 -14 -4 -9 -9 3 -16 10 -16 15 0
13 6 11 20 -6z m-4710 -11 c0 -8 -19 -13 -24 -6 -3 5 1 9 9 9 8 0 15 -2 15 -3z
m-135 -32 c-3 -3 -11 0 -18 7 -9 10 -8 11 6 5 10 -3 15 -9 12 -12z m4945 3
c11 -13 10 -14 -4 -9 -9 3 -16 10 -16 15 0 13 6 11 20 -6z m80 -31 c0 -8 -19
-13 -24 -6 -3 5 1 9 9 9 8 0 15 -2 15 -3z m-6009 -277 c-6 -8 -9 -16 -6 -19 3
-2 -2 -5 -10 -5 -13 0 -13 3 2 19 19 21 31 25 14 5z m4761 -119 c6 -10 8 -10
8 0 0 6 5 12 11 12 5 0 8 -3 6 -7 -3 -5 13 -9 36 -10 22 -1 44 -8 48 -15 5 -7
9 -9 9 -5 0 11 91 -43 121 -73 37 -37 77 -101 84 -135 8 -37 13 -59 15 -62 1
-2 3 -13 3 -25 2 -25 -1 -26 -137 -30 l-100 -3 -16 42 c-30 82 -88 119 -196
122 -133 4 -231 -50 -218 -122 6 -35 39 -77 61 -77 7 0 13 -4 13 -8 0 -4 12
-9 27 -10 15 -1 30 -7 34 -13 3 -6 9 -10 13 -9 4 1 20 0 36 -4 17 -3 33 -5 36
-5 3 0 12 -8 21 -18 8 -10 11 -12 7 -4 -7 15 28 10 104 -16 24 -8 52 -15 63
-16 10 -1 19 -5 19 -10 0 -4 3 -6 8 -3 17 10 172 -80 172 -100 0 -7 7 -14 15
-17 17 -7 58 -84 50 -96 -3 -5 0 -11 6 -13 6 -2 12 -27 12 -56 1 -28 6 -52 10
-52 5 0 6 -3 4 -7 -3 -5 -8 -26 -11 -48 -3 -22 -20 -68 -37 -102 -67 -138
-210 -206 -434 -206 -60 0 -122 3 -137 7 -16 3 -40 8 -55 11 -56 11 -149 63
-191 106 -78 79 -149 267 -107 282 11 5 14 3 9 -6 -6 -9 -5 -9 7 0 8 6 47 13
87 16 40 2 76 7 79 10 18 19 61 -48 54 -85 0 -5 4 -8 9 -8 6 0 10 -7 10 -15 0
-8 5 -15 10 -15 6 0 10 -6 10 -12 0 -7 17 -24 38 -38 20 -14 40 -29 43 -33 3
-5 10 -8 15 -7 5 1 27 -2 49 -6 22 -4 47 -6 55 -5 8 0 30 3 47 5 18 2 31 0 28
-4 -2 -4 2 -7 10 -7 8 0 12 4 9 9 -3 4 1 8 9 8 8 0 28 7 45 16 18 8 36 13 42
9 6 -3 7 0 4 9 -3 9 -1 16 5 16 6 0 16 11 23 25 6 13 14 23 17 20 12 -7 5 90
-8 113 -22 40 -94 67 -341 127 -8 2 -15 4 -15 5 0 1 -9 4 -20 6 -11 3 -24 6
-30 7 -46 11 -153 74 -188 110 -62 66 -86 129 -82 224 2 77 19 133 38 133 6 0
8 3 4 6 -6 7 2 18 51 69 17 19 32 31 32 27 0 -4 4 -2 8 3 7 11 53 33 63 31 3
0 12 4 20 11 8 6 27 14 43 17 16 3 31 8 34 10 3 3 12 0 20 -7 13 -10 14 -9 7
2 -6 11 -1 13 23 9 17 -2 29 -1 27 3 -3 4 36 5 87 3 59 -3 95 -8 100 -16z
m895 -11 c-3 5 20 9 54 9 32 -1 59 -4 59 -8 0 -3 8 -4 19 -1 10 3 22 0 25 -5
3 -6 16 -8 28 -4 17 4 20 2 14 -13 -5 -15 -4 -16 8 -5 13 10 22 8 53 -11 53
-31 83 -60 76 -72 -3 -6 -1 -7 5 -3 13 8 66 -70 57 -84 -3 -4 -1 -10 5 -12 15
-5 30 -98 16 -98 -7 0 -8 -3 -1 -8 12 -8 13 -27 3 -37 -4 -4 -4 -13 -1 -21 7
-19 -27 -124 -47 -144 -3 -3 -12 -18 -20 -35 -16 -31 -101 -119 -285 -295
l-110 -105 60 -3 c33 -2 63 -9 67 -15 6 -9 8 -9 8 1 0 7 14 12 35 12 21 0 35
-5 35 -12 0 -10 2 -10 8 -1 8 12 251 16 253 4 6 -27 4 -68 -4 -78 -6 -9 -6
-13 1 -13 11 0 9 -60 -3 -80 -5 -9 -4 -11 3 -6 16 10 15 -11 0 -21 -7 -4 -192
-8 -410 -9 -397 -1 -397 0 -393 20 2 12 4 29 4 39 1 10 5 16 10 13 4 -3 7 5 5
17 -5 26 59 153 75 150 5 -2 8 3 5 10 -2 7 19 39 48 70 29 32 59 64 66 73 7 8
17 12 22 9 6 -4 7 2 3 11 -5 14 -3 16 11 11 9 -4 15 -3 12 2 -7 10 131 137
145 134 4 -2 6 4 3 12 -6 14 7 20 31 15 6 -1 7 2 2 6 -9 10 33 55 45 48 5 -3
7 0 6 8 -2 7 3 12 10 10 8 -1 11 2 7 7 -3 6 2 19 12 29 10 10 19 25 21 33 2 7
8 17 14 20 19 12 22 132 4 171 -24 50 -82 80 -149 77 -86 -4 -129 -41 -152
-128 -10 -40 -15 -46 -36 -44 -59 5 -156 14 -174 17 -26 4 -24 52 6 132 36 94
144 182 249 199 19 3 36 8 39 10 2 2 13 0 24 -6 10 -6 17 -7 14 -2z m-3952
-167 c3 -5 1 -10 -4 -10 -6 0 -11 5 -11 10 0 6 2 10 4 10 3 0 8 -4 11 -10z
m4850 0 c3 -5 -1 -10 -10 -10 -9 0 -13 5 -10 10 3 6 8 10 10 10 2 0 7 -4 10
-10z m-4239 -84 c16 5 17 4 4 -6 -13 -10 -11 -11 8 -7 23 5 31 -8 10 -16 -16
-5 -58 21 -58 37 0 7 3 6 8 -2 5 -7 17 -10 28 -6z m-2726 -35 c0 -6 -4 -12 -8
-15 -5 -3 -9 1 -9 9 0 8 4 15 9 15 4 0 8 -4 8 -9z m0 -35 c0 -3 -4 -8 -10 -11
-5 -3 -10 -1 -10 4 0 6 5 11 10 11 6 0 10 -2 10 -4z m1008 -43 c-6 -7 -13 -11
-16 -8 -3 3 -11 0 -19 -6 -7 -6 -13 -8 -13 -4 0 11 30 32 46 32 10 0 11 -4 2
-14z m2194 -45 c-8 -8 -9 -4 -5 13 4 13 8 18 11 10 2 -7 -1 -18 -6 -23z
m-3142 -78 c0 -5 -2 -10 -4 -10 -3 0 -8 5 -11 10 -3 6 -1 10 4 10 6 0 11 -4
11 -10z m593 -31 c-8 -8 -13 -7 -18 2 -5 8 -4 10 3 5 7 -4 12 -2 12 5 0 7 3 9
7 6 4 -4 2 -12 -4 -18z m6400 7 c3 -8 0 -17 -7 -19 -10 -4 -12 1 -9 14 6 23 9
24 16 5z m3 -55 c0 -17 -3 -28 -6 -26 -5 3 -6 38 -1 53 4 10 7 -3 7 -27z
m-6533 -36 c-7 -21 -12 -19 -10 4 0 11 5 18 9 15 4 -3 5 -11 1 -19z m-171 -47
c-7 -7 -12 -8 -12 -2 0 14 12 26 19 19 2 -3 -1 -11 -7 -17z m6703 -48 c3 -6
-1 -7 -9 -4 -18 7 -21 14 -7 14 6 0 13 -4 16 -10z m-3220 -58 c-3 -3 -11 0
-18 7 -9 10 -8 11 6 5 10 -3 15 -9 12 -12z m85 -68 c0 -8 -5 -12 -10 -9 -6 4
-8 11 -5 16 9 14 15 11 15 -7z m40 -17 c11 -5 9 -6 -4 -4 -11 1 -21 9 -23 17
-3 10 -2 11 4 4 4 -6 15 -14 23 -17z m54 -49 c-3 -4 -11 -5 -19 -1 -21 7 -19
12 4 10 11 0 18 -5 15 -9z m749 -943 c4 -8 1 -17 -6 -21 -7 -4 -9 -4 -5 1 4 4
3 14 -3 22 -7 8 -8 13 -1 13 5 0 12 -7 15 -15z m1877 -55 c0 -5 -5 -10 -11
-10 -5 0 -7 5 -4 10 3 6 8 10 11 10 2 0 4 -4 4 -10z m-1790 -100 c0 -5 -5 -10
-11 -10 -5 0 -7 5 -4 10 3 6 8 10 11 10 2 0 4 -4 4 -10z m50 -160 c0 -5 -2
-10 -4 -10 -3 0 -8 5 -11 10 -3 6 -1 10 4 10 6 0 11 -4 11 -10z m1624 -35 c-4
-8 -11 -15 -16 -15 -6 0 -5 6 2 15 7 8 14 15 16 15 2 0 1 -7 -2 -15z m-160
-394 c3 -5 -1 -11 -9 -15 -8 -3 -17 0 -21 6 -4 7 -3 8 4 4 7 -4 12 -2 12 3 0
13 7 14 14 2z m-55 -115 c8 -10 8 -16 -3 -25 -11 -10 -14 -7 -12 14 1 29 0 29
15 11z m-1215 -422 c3 -8 2 -12 -4 -9 -6 3 -10 10 -10 16 0 14 7 11 14 -7z m6
-34 c0 -5 -2 -10 -4 -10 -3 0 -8 5 -11 10 -3 6 -1 10 4 10 6 0 11 -4 11 -10z
m770 -614 c0 -3 -4 -8 -10 -11 -5 -3 -10 -1 -10 4 0 6 5 11 10 11 6 0 10 -2
10 -4z m-873 -229 c0 -8 -6 -14 -13 -14 -7 0 -10 6 -7 14 3 7 8 13 12 13 4 0
8 -6 8 -13z m-40 -134 c-9 -2 -14 -9 -11 -15 4 -7 2 -8 -5 -4 -15 10 -4 26 17
25 15 -1 15 -2 -1 -6z m-577 -1042 c0 -5 -7 -12 -16 -15 -14 -5 -15 -4 -4 9
14 17 20 19 20 6z m-87 -96 c-3 -9 -8 -14 -10 -11 -3 3 -2 9 2 15 9 16 15 13
8 -4z m872 -25 c-3 -5 -10 -10 -16 -10 -5 0 -9 5 -9 10 0 6 7 10 16 10 8 0 12
-4 9 -10z m-55 -75 c-7 -9 -15 -13 -19 -10 -3 3 1 10 9 15 21 14 24 12 10 -5z
m-75 -92 c-11 -7 -24 -13 -29 -13 -6 1 -1 6 12 13 12 7 19 17 15 22 -4 4 -2 5
6 0 12 -7 11 -10 -4 -22z m-1038 -418 c0 -8 -4 -12 -9 -9 -5 3 -6 10 -3 15 9
13 12 11 12 -6z m327 -201 c3 -8 2 -12 -4 -9 -6 3 -10 10 -10 16 0 14 7 11 14
-7z m33 1 c0 -8 -4 -12 -9 -9 -5 3 -6 10 -3 15 9 13 12 11 12 -6z"/>
<path d="M5713 6675 c0 -8 4 -12 9 -9 5 3 6 10 3 15 -9 13 -12 11 -12 -6z"/>
<path d="M5510 5716 c0 -2 8 -10 18 -17 15 -13 16 -12 3 4 -13 16 -21 21 -21
13z"/>
<path d="M6670 6019 c0 -5 5 -7 10 -4 6 3 10 8 10 11 0 2 -4 4 -10 4 -5 0 -10
-5 -10 -11z"/>
<path d="M6573 5935 c0 -8 4 -12 9 -9 5 3 6 10 3 15 -9 13 -12 11 -12 -6z"/>
<path d="M6695 5709 c-4 -6 -5 -12 -2 -15 2 -3 7 2 10 11 7 17 1 20 -8 4z"/>
<path d="M7036 5662 c-3 -5 1 -9 9 -9 8 0 12 4 9 9 -3 4 -7 8 -9 8 -2 0 -6 -4
-9 -8z"/>
<path d="M2686 7213 c-6 -14 -5 -15 5 -6 7 7 10 15 7 18 -3 3 -9 -2 -12 -12z"/>
<path d="M2775 7221 c-3 -5 -2 -12 3 -15 5 -3 9 1 9 9 0 17 -3 19 -12 6z"/>
<path d="M2926 7217 c3 -10 9 -15 12 -12 3 3 0 11 -7 18 -10 9 -11 8 -5 -6z"/>
<path d="M3042 7214 c-7 -8 -8 -14 -3 -14 10 0 25 19 20 25 -2 1 -10 -3 -17
-11z"/>
<path d="M3081 7216 c-10 -11 -9 -14 1 -12 14 2 23 15 15 22 -2 2 -10 -2 -16
-10z"/>
<path d="M3135 7220 c-3 -5 -1 -10 4 -10 6 0 11 5 11 10 0 6 -2 10 -4 10 -3 0
-8 -4 -11 -10z"/>
<path d="M3166 7213 c-6 -14 -5 -15 5 -6 7 7 10 15 7 18 -3 3 -9 -2 -12 -12z"/>
<path d="M3215 7219 c-4 -6 -5 -12 -2 -15 2 -3 7 2 10 11 7 17 1 20 -8 4z"/>
<path d="M3327 7216 c-4 -10 -1 -13 8 -9 8 3 12 9 9 14 -7 12 -11 11 -17 -5z"/>
<path d="M3629 7213 c-13 -16 -12 -17 4 -4 16 13 21 21 13 21 -2 0 -10 -8 -17
-17z"/>
<path d="M3990 7220 c0 -4 13 -7 29 -6 16 0 27 3 25 6 -8 7 -54 7 -54 0z"/>
<path d="M4445 7220 c-2 -3 8 -6 23 -6 15 0 33 -3 41 -5 7 -2 16 3 18 11 4 13
3 13 -6 0 -6 -8 -11 -10 -11 -4 0 11 -58 15 -65 4z"/>
<path d="M4930 7218 c0 -3 9 -6 20 -5 11 1 20 5 20 9 0 3 -9 6 -20 5 -11 -1
-20 -5 -20 -9z"/>
<path d="M5155 7220 c3 -5 8 -10 11 -10 2 0 4 5 4 10 0 6 -5 10 -11 10 -5 0
-7 -4 -4 -10z"/>
<path d="M6687 7219 c7 -7 15 -10 18 -7 3 3 -2 9 -12 12 -14 6 -15 5 -6 -5z"/>
<path d="M2846 7212 c-3 -5 1 -9 9 -9 8 0 12 4 9 9 -3 4 -7 8 -9 8 -2 0 -6 -4
-9 -8z"/>
<path d="M2955 7210 c-3 -6 1 -7 9 -4 18 7 21 14 7 14 -6 0 -13 -4 -16 -10z"/>
<path d="M2185 7180 c-4 -6 -11 -7 -17 -4 -7 4 -8 2 -4 -5 6 -9 11 -9 22 0 14
11 18 19 10 19 -3 0 -8 -5 -11 -10z"/>
<path d="M7496 6661 c9 -17 20 -29 25 -26 5 4 9 8 9 11 0 3 -4 2 -10 -1 -5 -3
-10 0 -10 8 0 8 -7 20 -15 27 -12 10 -12 7 1 -19z"/>
<path d="M2750 6495 c0 -8 2 -15 4 -15 2 0 6 7 10 15 3 8 1 15 -4 15 -6 0 -10
-7 -10 -15z"/>
<path d="M2481 6491 c-8 -5 -9 -11 -3 -15 5 -3 12 1 16 9 6 17 6 18 -13 6z"/>
<path d="M2516 6492 c-3 -5 1 -9 9 -9 8 0 12 4 9 9 -3 4 -7 8 -9 8 -2 0 -6 -4
-9 -8z"/>
<path d="M2596 6483 c-6 -14 -5 -15 5 -6 7 7 10 15 7 18 -3 3 -9 -2 -12 -12z"/>
<path d="M2935 6479 c-3 -4 2 -6 10 -5 21 3 28 13 10 13 -9 0 -18 -4 -20 -8z"/>
<path d="M2210 6471 c0 -6 4 -13 10 -16 6 -3 7 1 4 9 -7 18 -14 21 -14 7z"/>
<path d="M3080 6470 c-9 -6 -10 -10 -3 -10 6 0 15 5 18 10 8 12 4 12 -15 0z"/>
<path d="M2015 6411 c-3 -5 -2 -12 3 -15 5 -3 9 1 9 9 0 17 -3 19 -12 6z"/>
<path d="M3435 6380 c-3 -6 1 -7 9 -4 18 7 21 14 7 14 -6 0 -13 -4 -16 -10z"/>
<path d="M3450 6366 c0 -2 7 -7 16 -10 8 -3 12 -2 9 4 -6 10 -25 14 -25 6z"/>
<path d="M3556 6338 c3 -5 10 -6 15 -3 13 9 11 12 -6 12 -8 0 -12 -4 -9 -9z"/>
<path d="M590 6326 c0 -2 7 -7 16 -10 8 -3 12 -2 9 4 -6 10 -25 14 -25 6z"/>
<path d="M1695 6320 c3 -5 8 -10 11 -10 2 0 4 5 4 10 0 6 -5 10 -11 10 -5 0
-7 -4 -4 -10z"/>
<path d="M3715 6301 c-3 -5 -2 -12 3 -15 5 -3 9 1 9 9 0 17 -3 19 -12 6z"/>
<path d="M1610 6280 c0 -5 5 -10 11 -10 5 0 7 5 4 10 -3 6 -8 10 -11 10 -2 0
-4 -4 -4 -10z"/>
<path d="M602 6254 c-7 -8 -8 -14 -3 -14 10 0 25 19 20 25 -2 1 -10 -3 -17
-11z"/>
<path d="M3856 6252 c-3 -5 1 -9 9 -9 8 0 12 4 9 9 -3 4 -7 8 -9 8 -2 0 -6 -4
-9 -8z"/>
<path d="M7645 6251 c-3 -5 0 -13 6 -17 7 -4 9 -3 5 4 -3 5 0 13 6 15 9 4 10
6 1 6 -6 1 -14 -3 -18 -8z"/>
<path d="M1385 6230 c-3 -5 -1 -10 4 -10 6 0 11 5 11 10 0 6 -2 10 -4 10 -3 0
-8 -4 -11 -10z"/>
<path d="M1332 6197 c-12 -7 -20 -16 -16 -20 3 -3 13 1 21 9 8 8 19 11 25 8 7
-4 8 -2 4 4 -9 14 -6 14 -34 -1z"/>
<path d="M3975 6160 c-3 -5 -1 -10 4 -10 6 0 11 5 11 10 0 6 -2 10 -4 10 -3 0
-8 -4 -11 -10z"/>
<path d="M4066 6151 c-4 -5 -1 -13 5 -17 8 -4 9 -3 5 4 -4 7 -3 12 3 12 5 0
12 -5 14 -10 3 -6 4 -5 3 2 -3 16 -23 22 -30 9z"/>
<path d="M1230 6140 c0 -5 5 -10 11 -10 5 0 7 5 4 10 -3 6 -8 10 -11 10 -2 0
-4 -4 -4 -10z"/>
<path d="M670 6116 c0 -2 8 -10 18 -17 15 -13 16 -12 3 4 -13 16 -21 21 -21
13z"/>
<path d="M4115 6100 c3 -5 8 -10 11 -10 2 0 4 5 4 10 0 6 -5 10 -11 10 -5 0
-7 -4 -4 -10z"/>
<path d="M4220 6068 c0 -2 9 -11 20 -21 11 -9 20 -13 20 -7 0 5 -9 14 -20 20
-11 6 -20 9 -20 8z"/>
<path d="M876 6033 c-6 -14 -5 -15 5 -6 7 7 10 15 7 18 -3 3 -9 -2 -12 -12z"/>
<path d="M905 6039 c-4 -6 -5 -12 -2 -15 2 -3 7 2 10 11 7 17 1 20 -8 4z"/>
<path d="M2410 5978 c0 -11 -6 -15 -20 -11 -11 3 -20 1 -20 -4 0 -5 -7 -10
-15 -10 -8 0 -11 5 -8 10 4 7 -1 7 -13 3 -44 -18 -57 -20 -49 -5 6 10 3 9 -11
-2 -10 -9 -32 -15 -47 -14 -15 1 -30 -2 -33 -7 -3 -5 -13 -3 -22 4 -12 10 -14
10 -8 1 7 -13 4 -14 -46 -16 -13 -1 -29 -8 -36 -17 -8 -8 -11 -9 -7 -2 5 10 0
11 -22 6 -15 -4 -33 -11 -39 -15 -6 -5 -14 -6 -17 -2 -4 3 -7 1 -7 -7 0 -10
-3 -10 -15 0 -11 9 -15 9 -15 1 0 -7 -4 -10 -9 -6 -5 3 -13 0 -16 -6 -4 -5
-13 -8 -21 -5 -8 3 -14 1 -14 -5 0 -6 -4 -8 -9 -5 -14 9 -42 -5 -35 -16 4 -6
-4 -5 -16 2 -12 7 -20 8 -16 2 7 -11 -21 -25 -35 -16 -5 3 -9 0 -9 -6 0 -6 -4
-8 -10 -5 -5 3 -10 2 -10 -4 0 -6 -7 -8 -15 -5 -8 4 -15 1 -15 -7 0 -7 -3 -9
-7 -6 -3 4 -13 1 -21 -6 -13 -10 -14 -9 -7 3 7 12 6 13 -7 3 -8 -7 -19 -9 -23
-5 -5 4 -5 2 -2 -5 5 -7 -7 -16 -30 -23 -21 -7 -47 -20 -57 -29 -14 -12 -17
-12 -11 -2 5 8 -6 5 -23 -8 -18 -12 -36 -20 -41 -17 -5 3 -12 -1 -15 -10 -3
-8 -10 -13 -15 -10 -5 3 -14 -1 -21 -9 -7 -8 -18 -15 -25 -15 -8 0 -15 -5 -17
-10 -2 -6 -13 -12 -25 -13 -12 0 -21 -4 -20 -7 1 -3 -2 -7 -8 -9 -5 -2 -22
-12 -37 -22 -14 -10 -31 -19 -36 -19 -6 0 -14 -5 -18 -12 -5 -7 -3 -8 6 -3 8
5 11 4 6 -3 -4 -6 -13 -9 -21 -5 -8 3 -15 0 -15 -6 0 -6 -4 -11 -10 -11 -9 0
-36 -19 -66 -48 -8 -7 -14 -11 -14 -7 0 7 -21 -10 -59 -47 -16 -16 -33 -28
-39 -28 -6 0 -16 -8 -21 -17 -6 -10 -11 -14 -11 -9 0 5 -19 -11 -41 -35 -23
-24 -38 -37 -34 -29 3 8 -3 3 -15 -13 -12 -15 -26 -24 -31 -21 -5 3 -8 2 -7
-3 1 -4 -32 -43 -74 -85 -43 -43 -75 -78 -72 -78 3 0 -7 -13 -23 -28 -15 -16
-39 -43 -53 -61 -14 -18 -34 -42 -44 -52 -11 -10 -17 -19 -13 -19 4 0 -1 -8
-11 -18 -32 -35 -52 -62 -44 -62 4 0 -2 -7 -13 -16 -11 -8 -20 -18 -20 -22 -1
-18 -53 -91 -61 -85 -5 5 -6 4 -1 -1 4 -5 0 -20 -8 -33 -9 -13 -13 -23 -10
-23 4 0 0 -7 -7 -15 -23 -25 -33 -40 -36 -55 -2 -7 -11 -20 -20 -28 -9 -7 -11
-10 -3 -7 9 5 8 0 -4 -18 -9 -15 -13 -32 -9 -38 4 -7 3 -9 -3 -6 -9 6 -53 -77
-53 -101 0 -7 -5 -12 -11 -12 -5 0 -7 -5 -4 -10 3 -6 -4 -24 -16 -42 -14 -18
-17 -28 -8 -24 7 4 6 1 -4 -7 -14 -11 -15 -16 -5 -20 9 -4 10 -6 1 -6 -7 -1
-10 -8 -6 -18 4 -11 3 -14 -5 -9 -7 4 -12 1 -12 -9 0 -9 -7 -30 -16 -47 -10
-19 -11 -28 -3 -23 8 6 10 4 3 -6 -4 -8 -9 -20 -11 -28 -1 -8 -7 -17 -13 -21
-6 -4 -1 -12 14 -20 14 -7 23 -17 20 -21 -2 -4 1 -11 7 -15 8 -4 9 -3 5 4 -4
7 -2 12 4 12 6 0 8 6 5 13 -4 6 0 4 8 -6 10 -12 17 -14 22 -8 4 8 12 8 25 1
13 -7 21 -7 25 1 5 7 14 4 28 -8 11 -10 17 -12 13 -5 -4 6 -2 12 3 12 6 0 11
-5 11 -11 0 -6 5 -7 13 -2 19 12 36 12 44 1 4 -7 1 -8 -7 -3 -9 5 -11 4 -6 -4
6 -9 11 -9 24 1 13 11 15 10 10 -10 -6 -20 -4 -22 10 -10 9 7 20 18 24 23 5 6
8 6 8 -2 0 -8 14 -11 40 -9 25 2 37 -1 33 -7 -4 -6 0 -8 10 -4 10 4 17 1 18
-6 0 -7 4 -3 9 8 7 17 9 17 9 3 1 -19 16 -24 26 -8 7 12 36 2 54 -19 12 -15
13 -14 8 1 -7 19 15 21 41 5 7 -5 12 -3 12 3 0 6 5 8 10 5 6 -4 7 -12 3 -18
-4 -7 0 -6 10 2 14 11 17 11 17 0 0 -11 2 -11 10 1 5 8 10 10 10 5 0 -6 10
-16 23 -24 17 -10 19 -11 9 0 -17 18 -15 34 3 19 8 -7 22 -10 30 -6 8 3 16 1
16 -4 1 -6 2 -14 3 -19 0 -5 5 -13 9 -18 5 -4 7 -3 5 2 -1 6 0 10 3 10 3 0 13
6 22 14 10 7 17 10 17 6 0 -4 6 -2 13 4 14 11 27 5 27 -13 0 -6 -5 -4 -10 4
-5 8 -10 10 -10 4 0 -6 8 -18 17 -25 10 -7 15 -9 11 -5 -13 15 13 38 27 26 7
-6 33 -9 59 -7 32 2 43 0 36 -8 -6 -7 -2 -11 11 -12 11 -1 17 2 15 6 -3 4 2 8
10 8 9 0 13 -6 9 -16 -3 -8 -3 -12 1 -8 4 4 14 1 23 -6 14 -10 14 -10 3 4 -10
14 -10 18 2 22 9 4 18 2 21 -3 3 -5 19 -8 35 -6 16 2 27 -1 24 -5 -3 -5 -1 -9
5 -9 5 0 13 5 16 10 5 8 11 7 21 0 7 -7 19 -10 26 -8 7 3 19 -2 26 -11 8 -9
11 -11 8 -4 -4 7 2 11 16 11 30 -2 50 -17 41 -32 -4 -7 -1 -6 9 1 8 7 19 9 23
5 5 -4 5 -1 0 7 -5 9 -3 12 6 9 8 -3 13 -13 13 -22 -2 -14 1 -15 13 -4 10 8
11 14 4 16 -6 2 -11 8 -11 14 0 7 5 7 13 -1 8 -6 18 -7 22 -3 5 4 5 -2 1 -12
-7 -20 -7 -20 15 0 12 10 19 13 15 6 -6 -10 1 -12 28 -9 20 3 39 0 42 -4 3 -5
10 -9 15 -9 6 0 7 5 3 11 -5 8 -1 8 14 0 15 -8 28 -7 51 2 17 7 28 16 25 20
-8 8 15 39 25 33 4 -3 7 3 8 13 2 22 51 77 66 73 6 -2 5 3 -2 11 -9 12 -8 15
6 13 10 0 17 5 15 12 -1 6 3 12 9 12 5 0 7 5 3 12 -4 7 -3 8 5 4 6 -4 14 0 17
8 3 9 10 13 15 10 5 -3 9 2 9 10 0 22 19 29 38 14 15 -12 16 -11 4 4 -13 17
-1 35 17 24 5 -3 8 2 7 12 -1 11 5 16 18 14 11 -2 15 1 11 7 -3 6 1 11 10 11
10 0 13 5 9 13 -6 9 -4 9 8 -1 14 -11 16 -10 12 10 -2 13 -2 17 2 11 3 -7 10
-13 15 -13 6 0 7 5 4 10 -3 6 -1 10 5 10 6 0 8 5 4 13 -5 8 -2 8 9 -2 15 -12
17 -11 17 3 0 10 5 14 11 11 6 -4 8 -14 5 -22 -3 -8 -1 -11 5 -8 5 4 7 16 3
28 -3 12 -3 19 1 15 4 -4 19 2 33 12 28 22 47 26 36 8 -4 -7 7 -2 24 10 17 13
34 27 37 32 3 4 14 6 24 3 10 -3 22 0 25 6 10 15 29 14 21 -1 -4 -7 1 -4 10 7
9 11 18 19 20 18 3 -2 4 0 3 4 -2 5 -6 7 -10 6 -3 -1 -9 4 -12 12 -3 9 0 12 9
8 12 -4 14 2 8 27 -5 27 -3 31 8 25 12 -7 12 -6 1 7 -10 12 -10 18 -1 23 8 6
7 10 -2 16 -11 7 -10 9 4 9 17 0 17 1 3 16 -21 20 -20 25 2 17 15 -6 15 -5 3
10 -9 12 -10 17 -2 17 9 0 9 5 1 20 -6 11 -7 20 -2 20 5 0 8 18 7 40 -1 23 4
45 12 51 8 8 10 17 3 29 -6 11 -5 21 3 30 9 10 9 11 0 6 -9 -5 -11 -2 -7 8 3
9 11 13 18 9 8 -5 8 -3 0 8 -6 8 -10 23 -7 34 2 11 4 32 4 48 0 15 4 25 9 22
5 -3 12 0 16 6 4 7 3 9 -3 6 -6 -4 -13 0 -17 8 -3 8 -1 15 4 15 6 0 10 5 10
11 0 5 -4 8 -8 5 -4 -2 -8 4 -9 14 -1 11 2 22 8 25 5 3 6 -2 3 -12 -5 -15 -4
-15 4 -3 8 10 7 19 -1 29 -10 12 -9 14 8 8 20 -7 20 -7 1 8 -11 8 -16 15 -10
15 5 0 10 13 10 30 1 19 -2 28 -10 24 -6 -3 -4 0 4 8 9 7 15 24 14 38 -1 14 2
33 7 43 7 11 6 17 -2 17 -7 0 -8 4 -2 13 5 6 9 19 8 27 0 8 4 18 10 22 6 5 6
8 -2 8 -7 0 -10 11 -8 28 2 15 4 31 4 35 1 5 5 6 9 3 5 -3 9 2 9 10 0 9 -6 13
-16 9 -12 -4 -11 -2 2 9 10 8 14 17 9 20 -5 3 -8 15 -6 28 1 13 3 27 3 31 1 5
4 6 9 4 4 -3 7 19 6 49 0 42 3 54 13 50 17 -7 16 -1 -3 19 -10 10 -13 20 -7
28 5 7 9 19 8 27 -1 8 2 22 6 31 4 8 4 21 -1 29 -11 17 7 43 23 33 6 -3 7 -1
3 5 -4 7 -15 12 -24 12 -14 0 -15 2 -2 9 8 6 19 7 25 5 5 -3 2 1 -7 8 -15 13
-15 15 0 26 9 7 11 10 5 7 -7 -3 -13 -2 -13 2 0 5 6 15 13 22 10 11 10 13 0 7
-7 -4 -13 -2 -13 3 0 6 5 11 12 11 9 0 9 3 1 11 -14 14 -5 41 11 33 6 -3 3 1
-7 9 -14 11 -15 16 -5 20 7 3 1 6 -14 6 -16 1 -28 -4 -28 -11 0 -9 -4 -8 -10
2 -9 13 -10 13 -10 0 0 -13 -1 -13 -10 0 -9 13 -11 13 -20 0 -9 -13 -11 -13
-20 0 -8 13 -10 13 -10 -2z"/>
<path d="M3257 5896 c-4 -10 -5 -22 -1 -27 3 -5 0 -9 -7 -9 -9 0 -9 -3 0 -14
9 -10 8 -15 -3 -19 -15 -6 -16 -23 -3 -44 4 -6 1 -14 -5 -16 -10 -4 -10 -8 1
-15 10 -7 10 -11 1 -17 -6 -4 -9 -13 -6 -21 3 -8 0 -14 -6 -14 -7 0 -6 -5 2
-15 9 -11 9 -15 1 -15 -7 0 -11 -8 -9 -17 1 -10 -1 -24 -6 -32 -7 -11 -6 -12
5 -6 12 8 12 6 0 -8 -11 -14 -11 -17 0 -17 10 0 10 -3 1 -12 -16 -16 -15 -31
1 -22 8 5 8 3 -2 -9 -7 -9 -11 -28 -9 -42 3 -13 2 -22 -2 -20 -5 3 -11 -2 -14
-11 -3 -8 -2 -12 4 -9 6 3 10 1 10 -4 0 -6 -6 -11 -12 -11 -10 0 -9 -3 1 -9
10 -6 10 -10 1 -16 -9 -6 -9 -10 1 -16 12 -7 12 -9 0 -9 -11 0 -11 -3 0 -17
12 -14 12 -16 -1 -11 -11 4 -15 -2 -16 -23 -1 -18 3 -26 10 -22 6 4 3 -6 -8
-21 -16 -26 -17 -28 -2 -23 15 6 15 4 3 -13 -7 -11 -12 -35 -11 -55 2 -24 0
-33 -8 -29 -6 4 -9 1 -6 -7 3 -8 12 -13 19 -11 11 2 10 -1 -1 -10 -17 -15 -19
-26 -6 -47 7 -10 6 -12 -4 -6 -10 6 -12 3 -8 -13 4 -12 1 -22 -4 -22 -6 0 -5
-6 2 -15 7 -8 8 -15 3 -15 -11 0 -13 -16 -13 -78 1 -31 -2 -42 -10 -37 -9 6
-9 2 -1 -12 6 -11 7 -24 3 -28 -10 -10 -9 -29 3 -37 6 -5 5 -8 -4 -8 -9 0 -11
-8 -7 -24 3 -14 2 -27 -4 -31 -5 -3 -6 -13 -3 -22 5 -12 3 -14 -8 -8 -11 7
-12 6 -2 -6 17 -21 17 -22 4 -46 -8 -16 -8 -23 -1 -23 6 0 8 -5 5 -10 -4 -6
-10 -8 -14 -5 -5 2 -7 -7 -5 -22 1 -14 9 -30 16 -34 10 -7 8 -9 -6 -9 -11 0
-16 -3 -13 -7 4 -3 1 -13 -6 -21 -9 -13 -9 -14 1 -8 15 9 15 1 1 -26 -8 -16
-8 -19 1 -13 9 6 9 2 0 -15 -6 -12 -9 -27 -7 -35 3 -7 0 -18 -6 -25 -9 -10 -9
-11 1 -5 11 6 12 3 3 -14 -7 -11 -8 -21 -4 -21 4 0 2 -5 -5 -12 -7 -7 -12 -17
-12 -23 0 -5 5 -3 10 5 9 13 10 13 10 0 0 -13 1 -13 10 0 8 13 10 12 10 -2 0
-11 8 -18 18 -18 10 0 28 -7 41 -16 18 -13 20 -18 10 -25 -10 -6 -6 -8 11 -7
16 2 24 -2 23 -9 -2 -7 2 -13 7 -13 6 0 10 5 10 10 0 6 16 -5 35 -24 19 -20
35 -33 35 -30 0 3 7 -2 16 -10 8 -9 12 -21 8 -28 -6 -9 -3 -9 9 1 15 12 17 11
17 -3 0 -9 3 -15 8 -14 4 2 8 0 10 -4 5 -17 38 -45 46 -40 5 3 6 0 2 -6 -4 -7
-2 -12 4 -12 6 0 8 -4 5 -10 -3 -5 1 -10 9 -10 9 0 16 -5 16 -11 0 -5 -5 -7
-12 -3 -7 4 -8 3 -4 -5 4 -6 11 -9 16 -6 11 7 33 -22 25 -35 -4 -6 -3 -9 2 -8
4 2 8 -1 8 -7 0 -5 -4 -9 -8 -7 -5 1 -6 -2 -2 -7 3 -6 13 -7 22 -4 12 5 15 2
10 -10 -3 -9 -3 -16 1 -16 4 1 14 1 22 0 12 -1 12 -4 -2 -12 -20 -11 -24 -29
-7 -29 5 0 7 5 3 11 -4 7 -1 10 7 7 8 -3 15 -14 17 -26 2 -13 8 -19 14 -16 6
4 8 2 4 -4 -3 -6 1 -18 10 -26 11 -12 12 -16 2 -16 -8 -1 -7 -4 4 -11 10 -5
15 -16 12 -24 -4 -9 0 -15 9 -15 11 0 13 -6 9 -22 -3 -12 -1 -19 5 -15 5 3 10
0 10 -8 0 -8 -3 -12 -7 -10 -4 2 -7 -2 -7 -10 0 -8 4 -12 8 -9 4 2 10 0 14 -5
3 -6 12 -8 20 -4 8 3 15 0 15 -7 0 -6 5 -8 12 -4 17 10 48 13 43 3 -3 -4 2 -9
10 -13 8 -3 15 -1 15 5 0 6 5 7 11 4 5 -4 24 -9 41 -12 23 -3 28 -1 22 9 -6
10 -5 11 8 1 8 -7 18 -10 21 -6 4 3 7 1 7 -6 0 -8 5 -9 19 -1 14 7 22 7 27 -2
5 -7 3 -8 -6 -3 -9 5 -11 4 -6 -4 4 -6 13 -8 19 -4 15 9 59 11 72 3 6 -3 17
-6 25 -5 8 1 24 -3 35 -9 11 -6 28 -9 37 -7 10 1 28 -3 40 -9 22 -11 22 -10
-2 10 -23 20 -23 21 -2 10 12 -6 27 -8 32 -5 5 3 12 0 16 -6 4 -8 3 -9 -4 -5
-7 4 -12 2 -12 -3 0 -12 13 -14 24 -4 9 9 46 11 46 2 0 -4 6 -7 13 -6 6 0 34
-1 61 -1 41 -2 47 -5 42 -19 -5 -16 -5 -16 6 -2 14 16 48 22 48 7 0 -4 5 -8
11 -8 5 0 7 6 3 13 -5 8 -2 7 9 -2 10 -8 20 -11 24 -8 3 3 20 -1 37 -10 29
-15 30 -15 17 1 -13 15 -12 16 10 8 13 -5 30 -7 37 -5 6 3 12 -1 12 -9 0 -10
3 -9 10 2 8 12 10 12 10 1 0 -10 3 -11 14 -2 11 9 16 9 22 0 4 -7 3 -9 -4 -5
-15 9 -8 -22 8 -37 12 -10 12 -9 2 4 -10 13 -8 19 6 33 10 9 22 13 26 9 7 -8
12 -9 38 -12 7 -1 5 -8 -5 -19 -14 -15 -15 -19 -2 -19 8 0 12 4 10 8 -3 3 2
12 10 19 18 15 49 5 40 -12 -4 -7 0 -5 8 5 15 18 32 24 22 7 -4 -6 1 -7 11 -3
14 5 16 3 11 -12 -6 -13 -4 -15 5 -8 7 6 23 13 36 16 17 4 22 2 18 -8 -3 -9 0
-12 9 -8 8 3 12 10 8 17 -4 6 5 3 20 -7 15 -9 27 -13 27 -8 0 14 30 7 40 -9 5
-8 6 -18 3 -24 -3 -5 -1 -6 5 -2 6 4 9 13 6 21 -4 10 0 13 15 10 12 -2 27 -7
34 -12 19 -12 36 -12 44 -1 4 7 1 8 -7 3 -9 -5 -11 -4 -6 4 10 16 29 2 23 -18
-2 -10 1 -18 8 -18 7 0 10 9 8 21 -4 17 -3 18 6 6 10 -13 11 -13 11 0 0 9 3
11 8 5 10 -16 54 -17 45 -2 -4 7 1 6 11 -2 16 -13 17 -11 14 30 -2 24 -8 50
-12 58 -6 9 -5 12 2 7 6 -3 13 -2 16 3 4 5 2 12 -3 16 -6 3 -8 13 -5 23 5 14
4 15 -5 2 -8 -11 -11 -12 -11 -2 0 7 -4 10 -10 7 -6 -3 -7 1 -4 9 3 9 10 14
14 11 11 -7 6 22 -5 32 -4 4 -5 2 0 -6 5 -9 4 -12 -3 -8 -5 4 -8 17 -4 29 4
15 2 19 -7 14 -9 -6 -9 -2 1 13 11 18 11 23 -2 31 -13 9 -13 10 0 10 12 0 13
2 1 9 -7 5 -11 15 -9 22 3 8 -2 20 -11 27 -14 12 -14 13 3 8 18 -6 18 -5 1 20
-9 15 -12 23 -5 19 9 -6 9 -2 0 15 -6 12 -9 28 -6 36 3 9 -1 14 -12 14 -15 0
-15 2 -2 10 8 5 10 10 4 10 -6 0 -10 14 -9 30 1 20 -2 29 -10 27 -6 -3 -11 5
-12 17 -1 58 -3 67 -15 60 -7 -4 -8 -3 -4 5 4 6 1 25 -8 41 -8 17 -11 28 -6
25 4 -3 3 6 -3 20 -7 14 -15 25 -18 25 -3 0 -5 11 -4 25 2 18 -2 25 -13 25
-15 0 -15 2 -2 10 9 6 10 10 3 10 -6 0 -10 9 -8 20 2 11 -1 19 -8 17 -7 -1
-13 10 -15 26 -2 15 -8 27 -13 27 -5 0 -9 9 -9 20 0 11 -4 20 -8 20 -4 0 -8 9
-9 20 -1 11 -9 27 -18 36 -9 9 -14 23 -11 31 3 7 -1 16 -9 19 -8 4 -12 10 -9
15 3 5 1 9 -5 9 -9 0 -22 26 -20 44 0 5 -6 13 -15 18 -9 5 -16 16 -16 23 0 8
-5 15 -12 15 -6 0 -9 3 -5 6 3 4 -5 21 -18 39 -14 17 -25 37 -25 43 0 7 -4 12
-10 12 -5 0 -10 7 -10 15 0 9 -7 18 -15 21 -8 4 -13 10 -10 14 3 4 -2 11 -11
14 -9 4 -14 9 -11 12 5 5 -10 27 -40 59 -7 8 -13 16 -13 19 0 5 -9 16 -55 67
-8 9 -15 21 -15 28 0 7 -4 10 -9 7 -5 -3 -16 4 -24 17 -16 24 -83 102 -105
121 -6 6 -41 39 -77 73 -36 35 -65 60 -65 57 0 -3 -13 8 -29 25 -16 17 -34 31
-41 31 -6 0 -9 4 -6 8 3 5 -7 15 -22 23 -14 8 -34 21 -43 29 -37 32 -49 40
-59 40 -5 0 -10 5 -10 10 0 6 -7 10 -15 10 -9 0 -18 7 -21 15 -4 8 -15 15 -25
15 -11 0 -22 7 -25 15 -4 8 -12 15 -20 15 -8 0 -14 5 -14 10 0 6 -5 10 -10 10
-6 0 -28 11 -50 25 -22 14 -40 22 -40 18 0 -4 -6 1 -13 12 -9 11 -19 15 -27
10 -9 -5 -11 -4 -6 3 6 11 -13 17 -37 13 -5 -1 -6 3 -3 8 7 10 -22 24 -34 16
-4 -3 -11 2 -14 11 -3 8 -10 12 -16 9 -5 -3 -10 -2 -10 3 0 10 -41 25 -68 27
-8 0 -19 7 -25 16 -7 9 -22 15 -34 14 -12 -1 -24 4 -27 12 -3 7 -12 10 -21 7
-8 -3 -15 -1 -15 6 0 6 -4 9 -9 5 -5 -3 -13 -1 -16 5 -4 6 -16 8 -27 4 -15 -4
-18 -3 -13 7 6 9 3 11 -8 6 -10 -3 -17 -2 -17 4 0 6 -4 7 -10 4 -5 -3 -10 -1
-10 6 0 7 -3 9 -6 6 -4 -3 -16 -2 -27 4 -15 9 -18 8 -11 -3 5 -8 -1 -7 -19 5
-14 9 -37 17 -51 17 -13 0 -26 5 -28 12 -3 7 -7 5 -11 -6z m1918 -2206 c3 -6
-1 -7 -9 -4 -18 7 -21 14 -7 14 6 0 13 -4 16 -10z"/>
<path d="M4480 5890 c-9 -6 -10 -10 -3 -10 6 0 15 5 18 10 8 12 4 12 -15 0z"/>
<path d="M7652 5895 c4 -4 3 -14 -3 -21 -7 -8 -7 -14 1 -19 8 -5 7 -12 -2 -23
-11 -15 -11 -15 3 -5 9 7 20 9 25 5 5 -4 1 2 -8 14 -13 14 -15 23 -7 31 8 8 7
13 -3 18 -7 5 -10 5 -6 0z"/>
<path d="M7640 5804 c0 -6 7 -19 16 -30 14 -18 14 -18 3 6 -14 31 -19 36 -19
24z"/>
<path d="M4666 5741 c-3 -5 3 -11 15 -14 16 -4 18 -3 8 9 -13 16 -16 17 -23 5z"/>
<path d="M4670 5706 c0 -2 7 -7 16 -10 8 -3 12 -2 9 4 -6 10 -25 14 -25 6z"/>
<path d="M7605 5700 c-3 -5 -2 -10 4 -10 5 0 13 5 16 10 3 6 2 10 -4 10 -5 0
-13 -4 -16 -10z"/>
<path d="M4754 5652 c-1 -15 1 -21 3 -14 3 6 9 9 15 6 6 -4 5 2 -1 15 -15 27
-16 27 -17 -7z"/>
<path d="M7606 5672 c-2 -4 0 -14 6 -22 8 -12 9 -12 5 2 -3 9 -1 19 6 22 9 3
9 5 0 5 -6 1 -14 -3 -17 -7z"/>
<path d="M7510 5440 c0 -4 7 -7 15 -6 23 3 26 12 5 13 -11 1 -20 -2 -20 -7z"/>
<path d="M5033 5315 c0 -8 4 -12 9 -9 5 3 6 10 3 15 -9 13 -12 11 -12 -6z"/>
<path d="M7467 5319 c7 -7 15 -10 18 -7 3 3 -2 9 -12 12 -14 6 -15 5 -6 -5z"/>
<path d="M5170 5161 c5 -11 15 -23 21 -27 6 -3 3 5 -6 20 -20 30 -30 35 -15 7z"/>
<path d="M5290 4960 c0 -5 5 -10 11 -10 5 0 7 5 4 10 -3 6 -8 10 -11 10 -2 0
-4 -4 -4 -10z"/>
<path d="M5233 4945 c0 -8 4 -12 9 -9 5 3 6 10 3 15 -9 13 -12 11 -12 -6z"/>
<path d="M7310 4939 c0 -5 5 -7 10 -4 6 3 10 8 10 11 0 2 -4 4 -10 4 -5 0 -10
-5 -10 -11z"/>
<path d="M5370 4796 c0 -2 7 -7 16 -10 8 -3 12 -2 9 4 -6 10 -25 14 -25 6z"/>
<path d="M5395 4760 c3 -5 11 -10 16 -10 6 0 7 5 4 10 -3 6 -11 10 -16 10 -6
0 -7 -4 -4 -10z"/>
<path d="M7207 4696 c-4 -10 -1 -13 9 -9 7 3 14 9 14 14 0 14 -17 10 -23 -5z"/>
<path d="M5520 4451 c13 -10 13 -12 0 -22 -13 -9 -13 -10 0 -6 8 2 15 10 15
17 0 7 -7 15 -15 17 -13 4 -13 3 0 -6z"/>
<path d="M2315 4420 c-3 -5 -1 -10 4 -10 6 0 11 5 11 10 0 6 -2 10 -4 10 -3 0
-8 -4 -11 -10z"/>
<path d="M2296 4387 c3 -10 9 -15 12 -12 3 3 0 11 -7 18 -10 9 -11 8 -5 -6z"/>
<path d="M2326 4378 c3 -5 10 -6 15 -3 13 9 11 12 -6 12 -8 0 -12 -4 -9 -9z"/>
<path d="M2193 4355 c0 -8 4 -12 9 -9 5 3 6 10 3 15 -9 13 -12 11 -12 -6z"/>
<path d="M2226 4358 c3 -5 10 -6 15 -3 13 9 11 12 -6 12 -8 0 -12 -4 -9 -9z"/>
<path d="M3120 4345 c0 -2 6 -8 13 -14 10 -8 14 -7 14 2 0 8 -6 14 -14 14 -7
0 -13 -1 -13 -2z"/>
<path d="M2165 4320 c-3 -6 1 -7 9 -4 18 7 21 14 7 14 -6 0 -13 -4 -16 -10z"/>
<path d="M3090 4326 c0 -2 7 -7 16 -10 8 -3 12 -2 9 4 -6 10 -25 14 -25 6z"/>
<path d="M2090 4279 c0 -5 5 -7 10 -4 6 3 10 8 10 11 0 2 -4 4 -10 4 -5 0 -10
-5 -10 -11z"/>
<path d="M7023 4255 c0 -8 4 -12 9 -9 5 3 6 10 3 15 -9 13 -12 11 -12 -6z"/>
<path d="M5587 4253 c-10 -9 -9 -23 1 -23 5 0 9 7 9 15 0 17 -1 18 -10 8z"/>
<path d="M2050 4246 c0 -2 7 -7 16 -10 8 -3 12 -2 9 4 -6 10 -25 14 -25 6z"/>
<path d="M1993 4215 c0 -8 4 -12 9 -9 5 3 6 10 3 15 -9 13 -12 11 -12 -6z"/>
<path d="M3275 4221 c-3 -5 -2 -12 3 -15 5 -3 9 1 9 9 0 17 -3 19 -12 6z"/>
<path d="M1895 4149 c-4 -6 -5 -12 -2 -15 2 -3 7 2 10 11 7 17 1 20 -8 4z"/>
<path d="M3353 4135 c0 -8 4 -12 9 -9 5 3 6 10 3 15 -9 13 -12 11 -12 -6z"/>
<path d="M206 4127 c3 -10 9 -15 12 -12 3 3 0 11 -7 18 -10 9 -11 8 -5 -6z"/>
<path d="M296 4107 c3 -10 9 -15 12 -12 3 3 0 11 -7 18 -10 9 -11 8 -5 -6z"/>
<path d="M340 4111 c0 -6 4 -13 10 -16 6 -3 7 1 4 9 -7 18 -14 21 -14 7z"/>
<path d="M1873 4105 c0 -8 4 -12 9 -9 5 3 6 10 3 15 -9 13 -12 11 -12 -6z"/>
<path d="M410 4101 c0 -6 4 -13 10 -16 6 -3 7 1 4 9 -7 18 -14 21 -14 7z"/>
<path d="M516 4058 c3 -5 10 -6 15 -3 13 9 11 12 -6 12 -8 0 -12 -4 -9 -9z"/>
<path d="M550 4061 c0 -6 4 -13 10 -16 6 -3 7 1 4 9 -7 18 -14 21 -14 7z"/>
<path d="M735 4061 c-3 -5 -2 -12 3 -15 5 -3 9 1 9 9 0 17 -3 19 -12 6z"/>
<path d="M1816 4053 c-6 -14 -5 -15 5 -6 7 7 10 15 7 18 -3 3 -9 -2 -12 -12z"/>
<path d="M3430 4058 c0 -4 4 -8 9 -8 6 0 12 4 15 8 3 5 -1 9 -9 9 -8 0 -15 -4
-15 -9z"/>
<path d="M834 4020 c0 -13 4 -16 10 -10 7 7 7 13 0 20 -6 6 -10 3 -10 -10z"/>
<path d="M630 4026 c0 -2 7 -7 16 -10 8 -3 12 -2 9 4 -6 10 -25 14 -25 6z"/>
<path d="M746 4018 c3 -5 10 -6 15 -3 13 9 11 12 -6 12 -8 0 -12 -4 -9 -9z"/>
<path d="M963 4018 c-11 -19 -13 -39 -1 -32 5 3 7 9 4 12 -3 3 -1 11 5 19 6 7
9 13 6 13 -3 0 -9 -6 -14 -12z"/>
<path d="M5626 4022 c-3 -5 1 -9 9 -9 8 0 15 4 15 9 0 4 -4 8 -9 8 -6 0 -12
-4 -15 -8z"/>
<path d="M1033 4005 c0 -8 4 -12 9 -9 5 3 6 10 3 15 -9 13 -12 11 -12 -6z"/>
<path d="M1060 4006 c0 -2 8 -10 18 -17 15 -13 16 -12 3 4 -13 16 -21 21 -21
13z"/>
<path d="M1134 3980 c0 -13 4 -16 10 -10 7 7 7 13 0 20 -6 6 -10 3 -10 -10z"/>
<path d="M1173 3970 c1 -21 10 -18 13 5 1 8 -2 15 -6 15 -5 0 -8 -9 -7 -20z"/>
<path d="M1350 3981 c0 -6 4 -12 8 -15 5 -3 9 1 9 9 0 8 -4 15 -9 15 -4 0 -8
-4 -8 -9z"/>
<path d="M1230 3956 c7 -7 13 -7 20 0 6 6 3 10 -10 10 -13 0 -16 -4 -10 -10z"/>
<path d="M1386 3962 c-2 -4 4 -8 14 -8 10 0 16 4 14 8 -3 4 -9 8 -14 8 -5 0
-11 -4 -14 -8z"/>
<path d="M1720 3960 c-8 -5 -10 -10 -5 -10 6 0 17 5 25 10 8 5 11 10 5 10 -5
0 -17 -5 -25 -10z"/>
<path d="M1330 3939 c0 -5 5 -7 10 -4 6 3 10 8 10 11 0 2 -4 4 -10 4 -5 0 -10
-5 -10 -11z"/>
<path d="M1530 3941 c0 -6 4 -12 8 -15 5 -3 9 1 9 9 0 8 -4 15 -9 15 -4 0 -8
-4 -8 -9z"/>
<path d="M1710 3920 c0 -5 9 -8 20 -7 21 1 18 10 -5 13 -8 1 -15 -2 -15 -6z"/>
<path d="M3690 3730 c0 -5 5 -10 11 -10 5 0 7 5 4 10 -3 6 -8 10 -11 10 -2 0
-4 -4 -4 -10z"/>
<path d="M6805 3720 c-3 -5 -2 -10 4 -10 5 0 13 5 16 10 3 6 2 10 -4 10 -5 0
-13 -4 -16 -10z"/>
<path d="M3695 3700 c-2 -3 5 -6 15 -7 11 -1 22 2 24 5 3 4 -4 8 -15 8 -11 0
-22 -3 -24 -6z"/>
<path d="M3750 3700 c0 -5 9 -8 20 -7 21 1 18 10 -5 13 -8 1 -15 -2 -15 -6z"/>
<path d="M3830 3706 c0 -2 7 -7 16 -10 8 -3 12 -2 9 4 -6 10 -25 14 -25 6z"/>
<path d="M3945 3699 c-3 -4 2 -6 10 -5 21 3 28 13 10 13 -9 0 -18 -4 -20 -8z"/>
<path d="M3910 3682 c0 -5 7 -9 15 -9 8 0 12 4 9 9 -3 4 -9 8 -15 8 -5 0 -9
-4 -9 -8z"/>
<path d="M4273 3633 c0 -9 4 -10 14 -2 7 6 13 12 13 14 0 1 -6 2 -13 2 -8 0
-14 -6 -14 -14z"/>
<path d="M4630 3630 c0 -5 5 -10 11 -10 5 0 7 5 4 10 -3 6 -8 10 -11 10 -2 0
-4 -4 -4 -10z"/>
<path d="M4513 3605 c0 -8 4 -12 9 -9 5 3 6 10 3 15 -9 13 -12 11 -12 -6z"/>
<path d="M4706 3603 c-6 -14 -5 -15 5 -6 7 7 10 15 7 18 -3 3 -9 -2 -12 -12z"/>
<path d="M4875 3591 c-3 -5 -2 -12 3 -15 5 -3 9 1 9 9 0 17 -3 19 -12 6z"/>
<path d="M6750 3579 c0 -5 5 -7 10 -4 6 3 10 8 10 11 0 2 -4 4 -10 4 -5 0 -10
-5 -10 -11z"/>
<path d="M5130 3556 c0 -2 8 -10 18 -17 15 -13 16 -12 3 4 -13 16 -21 21 -21
13z"/>
<path d="M6755 3540 c-3 -5 -1 -10 4 -10 6 0 11 5 11 10 0 6 -2 10 -4 10 -3 0
-8 -4 -11 -10z"/>
<path d="M5675 3471 c-6 -11 13 -26 22 -17 4 3 0 6 -8 6 -11 0 -11 2 1 10 9 6
10 10 3 10 -6 0 -14 -4 -18 -9z"/>
<path d="M96 3412 c-12 -20 -9 -84 4 -92 11 -7 12 -10 2 -10 -14 0 -13 -40 1
-51 13 -9 17 -90 4 -82 -7 4 -5 -1 3 -11 16 -21 23 -49 9 -40 -5 3 -9 0 -9 -5
0 -6 6 -11 13 -11 9 0 8 -3 -2 -9 -9 -6 -10 -10 -2 -12 7 -3 14 -19 16 -37 3
-22 1 -30 -7 -26 -6 4 -8 3 -4 -4 3 -5 0 -13 -6 -16 -7 -3 -3 -3 9 0 22 5 26
-8 9 -35 -6 -9 -5 -12 1 -8 6 4 13 -5 15 -23 2 -16 1 -27 -4 -24 -4 3 -5 -2
-2 -10 3 -9 11 -13 18 -9 6 4 4 -2 -4 -12 -9 -11 -10 -16 -2 -11 11 7 17 -12
13 -38 -1 -4 4 -15 11 -24 11 -13 11 -14 -2 -7 -12 7 -13 6 -3 -7 7 -8 10 -18
6 -21 -3 -4 -1 -7 4 -7 6 0 10 -8 9 -17 -2 -10 4 -24 13 -31 14 -12 14 -13 -4
-7 -18 6 -18 5 2 -17 17 -18 19 -27 11 -42 -8 -14 -7 -17 1 -12 10 6 15 -6 12
-26 0 -5 3 -8 8 -8 13 0 20 -49 7 -54 -6 -2 -3 -5 8 -5 13 -1 17 -6 13 -21 -3
-11 -1 -18 3 -15 5 3 11 1 15 -5 3 -5 1 -10 -5 -10 -7 0 -5 -7 4 -16 9 -8 14
-20 11 -25 -4 -5 -2 -9 3 -9 5 0 14 -12 21 -26 10 -22 9 -26 -3 -21 -9 4 -18
2 -21 -4 -4 -5 -3 -9 2 -8 22 4 43 -2 38 -11 -3 -5 -1 -10 6 -10 8 0 7 -5 -2
-17 -8 -9 -9 -14 -3 -10 17 10 37 -19 31 -43 -4 -16 1 -24 20 -31 20 -7 23
-12 14 -23 -9 -11 -9 -16 0 -22 8 -4 9 -3 5 4 -4 7 -5 12 -2 12 3 0 10 -10 17
-21 8 -15 8 -19 0 -15 -6 4 -11 2 -11 -3 0 -6 9 -11 19 -11 14 0 19 -6 16 -19
-2 -11 3 -22 12 -25 13 -5 13 -9 2 -22 -11 -14 -10 -15 7 -12 13 2 20 -3 22
-19 2 -13 8 -23 13 -23 5 0 9 -4 9 -10 0 -9 19 -36 49 -67 12 -13 12 -19 2
-37 -11 -17 -11 -19 0 -8 18 17 32 15 25 -4 -5 -12 -2 -15 10 -10 14 6 15 4 4
-9 -7 -9 -9 -15 -4 -14 23 4 36 -2 31 -15 -3 -8 2 -20 11 -28 15 -11 16 -11 7
2 -5 9 -2 7 7 -3 10 -11 15 -24 11 -30 -4 -6 0 -8 11 -4 10 4 15 3 11 -3 -3
-6 1 -13 9 -16 9 -3 16 -10 16 -16 0 -5 -6 -6 -12 -2 -8 4 -10 3 -5 -2 8 -9
12 -10 39 -13 6 0 8 -4 5 -8 -4 -3 2 -12 13 -20 11 -8 20 -20 20 -27 0 -8 7
-17 16 -20 8 -3 13 -10 9 -15 -3 -6 4 -8 16 -6 17 4 19 2 8 -11 -9 -12 -9 -13
2 -9 8 2 23 -7 33 -22 11 -14 13 -23 6 -18 -8 5 -11 4 -6 -3 4 -6 13 -9 21 -5
9 3 15 -1 15 -11 0 -9 4 -16 9 -16 5 0 19 -11 32 -25 13 -13 30 -25 37 -25 7
0 10 -5 7 -10 -4 -6 -11 -7 -17 -4 -7 4 -8 2 -4 -5 4 -6 11 -9 16 -6 12 8 41
-6 34 -16 -5 -8 2 -11 22 -8 3 0 16 -11 30 -26 13 -14 24 -23 24 -20 0 4 7 0
15 -9 8 -8 15 -23 15 -33 0 -15 2 -16 10 -3 7 11 10 11 10 2 0 -7 4 -11 9 -8
11 7 53 -29 44 -38 -3 -3 4 -6 16 -6 12 0 24 -6 27 -14 3 -9 12 -12 21 -9 10
4 14 2 9 -5 -6 -10 30 -28 47 -24 5 1 6 -1 3 -6 -2 -4 -1 -14 5 -22 6 -11 9
-12 9 -2 0 7 5 10 11 7 6 -4 8 -13 5 -20 -3 -8 2 -11 15 -8 11 3 19 0 19 -7 0
-9 4 -9 17 1 11 10 14 10 9 2 -4 -8 -2 -13 8 -13 8 0 18 -5 22 -12 5 -7 3 -8
-6 -3 -8 5 -11 4 -6 -3 4 -6 13 -9 21 -5 8 3 15 0 15 -6 0 -6 3 -10 8 -10 20
3 32 -2 32 -15 0 -8 9 -12 25 -11 14 2 28 -2 32 -7 4 -7 1 -8 -7 -3 -9 5 -11
4 -6 -4 4 -6 12 -9 17 -5 6 3 17 -2 25 -12 15 -18 15 -18 10 1 -6 18 -4 18 13
-2 11 -14 31 -23 46 -23 23 0 26 -4 22 -21 -4 -16 -3 -18 7 -9 14 11 43 10 64
-4 11 -6 11 -11 0 -24 -10 -12 -7 -12 14 2 25 16 28 17 34 2 3 -9 10 -13 15
-10 13 8 50 -6 44 -16 -3 -4 5 -6 17 -2 14 3 19 2 14 -6 -4 -7 -2 -12 3 -12 6
0 11 6 11 13 0 9 2 9 8 0 4 -6 21 -13 37 -15 17 -2 33 -7 36 -11 3 -5 9 1 12
12 3 12 1 18 -4 15 -5 -3 -4 7 3 21 9 21 9 28 -1 35 -8 5 -9 9 -3 11 6 2 12
23 13 47 2 23 8 42 13 42 6 0 4 5 -4 10 -12 8 -12 10 5 11 l20 0 -20 9 c-11 5
-15 9 -9 9 6 1 11 9 11 18 0 80 4 104 16 97 7 -5 6 0 -3 11 -9 11 -10 16 -2
11 6 -4 12 -3 12 3 0 5 -6 11 -12 14 -10 3 -10 7 1 20 11 14 11 17 0 17 -12 0
-12 2 0 9 8 5 12 18 8 30 -4 15 0 21 11 21 14 0 15 2 3 9 -13 8 -13 12 0 27
11 14 11 16 0 10 -9 -6 -12 -5 -9 5 3 8 11 13 17 11 7 -1 10 2 6 8 -3 6 -10 8
-15 5 -9 -6 -8 14 2 30 3 6 4 22 2 38 -1 15 2 27 7 27 6 0 7 -5 3 -12 -4 -7
-3 -8 4 -4 9 5 7 15 -6 34 -9 14 -12 23 -5 19 6 -4 14 -3 18 3 3 5 2 10 -3 10
-5 0 -9 7 -9 15 0 8 4 12 9 9 4 -3 8 0 8 5 0 6 -6 11 -12 11 -9 0 -9 3 -3 8 6
4 11 18 10 32 0 14 3 33 8 43 5 11 3 17 -5 17 -9 0 -9 3 2 10 13 9 13 10 0 10
-12 1 -11 3 3 11 15 9 16 13 5 27 -10 12 -10 14 0 8 6 -4 12 -2 12 3 0 6 -6
11 -12 11 -9 0 -8 4 2 10 13 9 13 10 0 10 -11 0 -12 2 -3 8 7 4 11 16 11 27
-1 11 2 33 6 48 5 22 4 27 -6 21 -7 -5 -5 5 6 20 13 21 15 30 6 36 -9 6 -9 9
-1 15 9 5 9 10 0 21 -7 9 -8 14 -3 13 21 -4 28 2 14 12 -9 6 -11 12 -5 15 6 2
9 21 7 41 -3 21 -1 33 5 30 5 -3 10 0 10 8 0 8 -5 11 -11 8 -6 -4 -5 1 3 10
11 14 11 17 0 17 -11 0 -11 2 0 9 13 8 13 12 0 27 -9 11 -9 15 -1 10 7 -4 12
-2 12 4 0 6 6 8 13 5 6 -4 3 1 -7 9 -11 9 -15 16 -9 16 8 0 11 18 9 50 -2 29
2 51 8 54 6 2 5 5 -3 5 -11 1 -10 5 5 17 10 8 13 12 5 8 -11 -5 -13 -2 -9 14
4 15 2 22 -8 22 -8 0 -23 9 -34 20 -12 12 -25 18 -29 15 -5 -2 -12 2 -15 11
-3 8 -10 12 -16 9 -5 -3 -10 1 -10 9 0 9 -6 16 -13 16 -7 0 -20 9 -30 20 -10
12 -23 18 -29 14 -7 -4 -8 -3 -4 4 4 7 1 12 -8 12 -9 0 -15 4 -14 9 2 5 -21
32 -49 59 -29 28 -53 54 -53 59 0 5 -9 15 -20 23 -11 8 -20 20 -20 27 0 7 -4
13 -10 13 -5 0 -10 7 -10 15 0 8 -4 15 -10 15 -5 0 -10 7 -10 15 0 8 -5 15
-11 15 -5 0 -8 4 -5 9 3 5 -4 20 -15 35 -11 14 -17 26 -12 26 4 0 0 5 -11 11
-15 9 -16 13 -5 20 11 7 11 9 1 9 -7 0 -10 5 -7 10 3 6 1 10 -4 10 -6 0 -11 9
-11 21 0 11 -4 18 -9 15 -5 -3 -9 6 -9 21 0 15 -5 29 -11 31 -9 3 -8 8 1 20
11 13 11 14 -1 7 -11 -6 -13 -4 -8 8 3 9 2 19 -4 22 -5 4 -7 11 -4 16 4 5 1 9
-4 9 -6 0 -10 3 -10 8 5 27 -8 32 -83 35 -16 0 -28 5 -28 11 0 6 -5 4 -10 -4
-9 -13 -10 -13 -10 0 0 13 -1 13 -10 0 -5 -8 -10 -10 -10 -5 0 10 -41 15 -137
19 -22 0 -39 4 -36 9 2 4 -3 7 -11 7 -9 0 -16 -6 -16 -12 0 -10 -2 -10 -8 -1
-4 7 -25 13 -47 14 -22 1 -46 7 -54 13 -11 8 -13 8 -7 -1 4 -7 3 -13 -3 -13
-5 0 -12 6 -14 13 -4 9 -8 8 -16 -3 -7 -10 -11 -11 -11 -3 0 8 -11 11 -30 9
-16 -2 -30 1 -30 7 0 5 -7 4 -15 -3 -8 -7 -15 -8 -15 -2 0 5 -13 8 -30 7 -16
-1 -30 1 -30 5 0 10 -20 8 -39 -4 -9 -6 -12 -5 -7 2 4 7 -7 11 -34 10 -22 0
-46 5 -53 11 -10 8 -17 7 -25 -1 -9 -9 -12 -9 -12 2 0 13 -2 13 -10 0 -8 -12
-10 -12 -10 -1 0 11 -3 11 -17 0 -14 -12 -16 -12 -8 0 6 11 2 13 -19 9 -15 -3
-26 -1 -26 6 0 6 -5 4 -10 -4 -5 -8 -10 -10 -10 -4 0 6 -11 10 -24 9 -13 -2
-29 1 -37 5 -7 5 -21 4 -30 -1 -13 -7 -21 -5 -28 8 -6 10 -11 13 -11 6 0 -7
-9 -10 -22 -7 -13 3 -36 5 -53 6 -16 0 -36 6 -44 12 -12 9 -13 8 -6 -4 8 -13
7 -13 -8 -1 -14 11 -17 11 -17 0 0 -9 -3 -10 -8 -3 -6 9 -40 15 -114 18 -16 0
-28 5 -28 10 0 5 -7 3 -15 -4 -12 -10 -15 -10 -15 0 0 9 -4 9 -17 -1 -9 -8
-14 -9 -10 -3 4 7 -2 14 -13 17 -11 3 -20 1 -20 -4 0 -5 -11 -4 -25 1 -13 5
-26 6 -29 2z"/>
<path d="M90 3229 c0 -11 4 -18 10 -14 5 3 7 12 3 20 -7 21 -13 19 -13 -6z"/>
<path d="M5646 3101 c-3 -5 1 -11 9 -14 9 -4 12 -1 8 9 -6 16 -10 17 -17 5z"/>
<path d="M3612 3018 c-6 -6 -12 -8 -12 -4 0 5 -7 3 -15 -4 -8 -7 -12 -16 -9
-21 3 -5 0 -9 -7 -9 -7 0 -9 -3 -6 -7 4 -3 -5 -22 -20 -41 -15 -20 -21 -32
-13 -27 7 5 5 -3 -6 -17 -10 -14 -22 -24 -26 -21 -5 2 -8 -5 -8 -16 0 -12 -4
-21 -10 -21 -5 0 -10 -7 -10 -15 0 -8 -5 -15 -10 -15 -6 0 -16 -11 -22 -25 -7
-15 -17 -24 -25 -21 -7 3 -12 2 -10 -2 1 -4 -6 -18 -16 -32 -9 -13 -17 -20
-17 -15 -1 6 -7 -1 -15 -15 -8 -14 -14 -21 -15 -17 0 4 -13 -5 -28 -20 -35
-34 -70 -63 -78 -63 -2 0 -10 -5 -17 -10 -31 -26 -86 -58 -91 -52 -3 3 -6 -1
-6 -8 0 -7 -3 -10 -6 -7 -4 4 -19 -3 -35 -14 -15 -11 -41 -21 -58 -22 -16 -1
-27 -5 -24 -9 4 -7 -20 -12 -39 -9 -5 0 -8 -3 -8 -7 0 -8 -14 -12 -52 -13 -19
0 -34 -17 -37 -39 -1 -8 -3 -32 -5 -53 -2 -21 -7 -41 -10 -44 -3 -4 -1 -12 5
-20 9 -10 8 -13 0 -13 -7 0 -10 -4 -7 -9 4 -5 0 -12 -6 -14 -10 -4 -10 -6 0
-6 6 -1 12 -9 12 -18 0 -15 -2 -16 -10 -3 -6 9 -10 10 -10 3 0 -6 4 -15 10
-18 6 -4 4 -18 -6 -37 -9 -16 -11 -27 -5 -24 6 4 11 2 11 -3 0 -6 -4 -11 -8
-11 -5 0 -8 -18 -6 -40 1 -22 -1 -38 -5 -36 -4 3 -8 -1 -8 -9 0 -8 5 -12 10
-8 5 3 4 -5 -3 -17 -6 -12 -9 -24 -6 -27 3 -3 1 -15 -5 -26 -8 -14 -8 -18 0
-13 6 4 11 2 11 -3 0 -6 -6 -11 -12 -11 -9 0 -8 -4 2 -10 9 -6 10 -10 3 -10
-7 0 -10 -9 -8 -22 3 -12 0 -27 -6 -35 -9 -10 -8 -13 2 -13 9 -1 8 -4 -4 -11
-10 -6 -14 -15 -10 -22 13 -21 10 -47 -6 -47 -11 0 -10 -3 5 -15 10 -8 14 -15
8 -15 -6 0 -10 -13 -9 -30 1 -16 -2 -27 -7 -24 -4 3 -8 0 -8 -5 0 -6 6 -11 13
-11 6 0 4 -5 -6 -11 -15 -9 -16 -13 -6 -26 10 -12 10 -16 0 -23 -11 -6 -11 -9
0 -13 8 -3 9 -6 3 -6 -6 -1 -9 -14 -6 -32 4 -25 2 -30 -9 -24 -12 7 -12 6 -1
-7 10 -13 10 -17 0 -21 -10 -4 -9 -6 1 -6 11 -1 10 -5 -5 -16 -10 -8 -14 -15
-9 -14 21 3 29 -2 17 -9 -7 -5 -13 -29 -14 -55 0 -28 -5 -47 -12 -47 -6 0 -4
-5 4 -10 13 -9 13 -10 0 -10 -12 0 -12 -2 -1 -9 9 -6 10 -11 2 -15 -6 -4 -11
-12 -11 -17 0 -6 6 -7 13 -3 9 6 9 4 1 -7 -16 -21 -26 -51 -14 -44 6 3 10 1
10 -4 0 -6 -3 -11 -7 -11 -5 0 -8 -19 -8 -43 0 -23 -4 -45 -10 -49 -6 -5 -4
-8 4 -8 11 0 9 -4 -5 -15 -10 -8 -14 -15 -9 -14 22 3 29 -2 16 -10 -9 -6 -14
-27 -14 -57 0 -27 -5 -55 -11 -63 -9 -12 -8 -13 4 -6 12 6 13 5 3 -6 -7 -7
-13 -17 -13 -22 0 -4 6 -5 13 -1 10 6 10 4 0 -7 -19 -19 -16 -32 6 -26 23 6
54 -11 45 -25 -4 -7 -2 -8 4 -4 6 4 9 13 6 20 -4 10 2 12 22 8 18 -3 31 0 39
12 11 15 13 15 19 1 4 -11 2 -14 -6 -9 -7 5 -8 3 -4 -5 9 -13 21 -6 21 11 0
14 33 19 41 7 3 -5 10 -9 15 -9 6 0 7 5 4 10 -3 6 5 10 19 10 13 0 27 -6 29
-12 3 -8 6 -6 6 4 1 11 6 15 16 12 8 -4 23 0 32 7 14 12 16 12 11 -6 -4 -15 0
-21 13 -21 13 0 15 4 8 12 -7 8 -7 14 0 18 5 4 15 -2 21 -11 11 -17 11 -17 6
-1 -3 10 -1 18 4 18 6 0 10 -6 10 -12 1 -7 6 -3 14 10 11 21 14 21 25 8 7 -8
9 -21 5 -27 -4 -8 -3 -9 5 -5 6 4 10 15 9 23 -2 9 3 18 11 21 8 2 11 0 8 -5
-3 -5 0 -10 8 -10 8 0 11 5 8 10 -4 6 0 8 10 4 12 -4 17 -1 17 11 0 14 2 15 9
2 6 -8 7 -18 4 -24 -3 -5 -1 -6 6 -2 6 4 8 12 5 18 -4 6 1 8 16 3 13 -4 20 -3
17 2 -3 5 3 14 13 21 12 7 21 8 25 2 10 -16 28 -12 22 5 -5 11 -1 12 20 4 19
-7 24 -6 20 3 -3 9 6 13 29 14 19 0 34 -4 34 -9 0 -6 3 -7 6 -4 4 4 1 14 -6
22 -11 13 -11 16 1 13 8 -2 17 -7 21 -13 5 -6 8 -5 8 3 0 6 9 12 19 12 11 0
23 5 26 10 5 8 12 7 23 -2 13 -11 14 -11 7 1 -6 11 -4 13 10 7 16 -6 16 -4 4
11 -10 11 -10 14 -1 9 20 -12 70 -19 52 -7 -8 5 -18 7 -22 5 -4 -3 -8 0 -8 6
0 7 7 10 15 7 8 -4 17 -2 20 3 9 15 37 12 29 -2 -4 -8 -3 -10 2 -5 5 5 9 14 9
20 0 7 8 11 18 11 9 -1 17 2 17 8 0 5 5 6 10 3 6 -3 10 -1 10 5 0 6 5 8 10 5
6 -3 10 -1 10 5 0 6 5 8 10 5 6 -3 10 -3 10 2 0 14 87 52 127 55 10 1 10 5 1
15 -8 11 -7 12 6 7 15 -6 20 -18 17 -37 -1 -5 3 -5 9 -2 8 5 6 14 -4 31 -15
21 -15 23 1 17 11 -4 14 -3 9 5 -5 8 -2 10 8 6 9 -4 18 0 22 9 3 9 12 13 19
11 8 -3 16 4 20 16 6 20 7 21 20 3 13 -17 14 -16 8 5 -4 17 -2 21 10 16 10 -3
21 2 29 15 7 12 21 21 31 21 10 0 16 4 12 9 -3 6 5 15 17 21 21 10 22 10 5 -3
-10 -9 -14 -18 -9 -21 5 -3 15 6 22 19 7 13 18 21 23 18 6 -4 8 0 4 9 -4 12 0
15 18 13 13 -1 26 4 29 11 3 8 -1 11 -12 8 -9 -2 -5 2 10 9 15 7 35 22 44 32
8 11 13 15 10 9 -3 -6 1 -11 8 -11 8 0 12 7 8 15 -4 11 -1 13 8 7 10 -6 12 -4
7 9 -6 14 -3 17 8 12 9 -3 14 -2 11 3 -3 5 2 15 11 22 14 12 16 12 9 -1 -4 -8
-1 -6 8 4 8 10 13 23 10 27 -3 5 2 6 10 3 9 -3 13 -11 9 -17 -3 -6 -1 -7 6 -3
9 6 9 12 -1 24 -7 10 -9 14 -5 11 11 -9 66 43 59 55 -3 5 -1 7 4 4 5 -3 26 12
47 34 20 21 35 38 32 38 -2 0 11 15 30 33 19 19 32 37 28 40 -3 4 1 7 11 7 9
0 15 4 12 9 -8 13 21 34 35 25 8 -4 9 -3 5 4 -8 14 14 52 31 52 6 0 15 4 18
10 4 6 -1 7 -12 3 -15 -6 -16 -5 -3 9 12 12 18 13 29 4 12 -8 13 -8 7 2 -4 7
-1 28 9 48 15 33 29 42 38 27 2 -5 2 -2 0 6 -2 7 2 20 8 27 6 8 8 14 5 14 -4
0 3 10 14 22 11 12 18 28 16 35 -3 7 -2 12 2 12 17 -3 32 2 31 9 -3 18 2 32
12 32 5 0 7 -5 3 -12 -4 -7 -3 -8 5 -4 9 6 9 11 0 22 -11 14 -2 19 24 15 5 -1
5 4 1 11 -12 19 -14 39 -3 32 5 -3 9 0 9 6 0 6 5 8 13 4 9 -6 9 -5 0 7 -10 12
-9 18 7 31 10 9 21 15 24 12 3 -2 2 1 -3 8 -12 13 5 51 19 43 6 -3 7 0 4 8 -3
8 0 18 5 22 6 3 8 11 5 17 -4 6 -1 9 7 6 8 -3 13 -13 12 -23 -1 -12 2 -14 10
-6 7 7 5 17 -9 32 -17 21 -18 22 -1 16 13 -5 16 -3 10 6 -13 20 -12 36 2 31 7
-3 16 0 21 7 4 7 3 10 -4 5 -6 -4 -10 1 -9 13 1 16 4 18 16 8 12 -10 13 -9 1
12 -11 21 -10 23 4 18 18 -7 22 8 6 18 -8 5 -8 11 -1 19 6 7 7 17 3 22 -4 4 0
3 9 -4 14 -10 16 -8 14 19 -1 22 2 29 12 25 9 -4 11 -2 6 6 -14 25 -10 48 9
48 11 0 16 5 13 10 -4 6 -12 7 -18 3 -8 -5 -8 -2 0 9 7 8 9 19 5 23 -4 5 -1 5
6 0 10 -5 13 -2 10 11 -2 11 3 25 12 32 8 8 10 11 4 8 -7 -3 -9 3 -6 19 2 14
8 25 12 25 5 0 6 10 2 22 -3 14 -1 19 6 14 8 -5 10 -2 6 8 -6 16 -17 20 -41
17 -7 -1 -13 3 -13 10 0 8 -3 9 -13 0 -8 -6 -17 -8 -21 -4 -9 9 -31 13 -81 14
-22 1 -50 5 -63 10 -16 6 -21 6 -16 -2 4 -8 0 -8 -15 0 -11 7 -21 9 -21 7 0
-3 -11 -1 -25 4 -18 7 -25 6 -25 -3 0 -8 -3 -8 -8 -2 -4 6 -24 10 -44 10 -21
0 -38 3 -38 8 0 5 -8 3 -17 -4 -9 -8 -14 -9 -10 -3 6 10 -22 15 -115 18 -21 0
-38 3 -38 6 0 3 -12 5 -27 4 -16 -1 -36 3 -45 8 -13 6 -18 5 -18 -4 0 -8 -3
-9 -8 -3 -4 6 -17 10 -30 9 -12 -1 -25 3 -28 8 -3 5 -12 4 -20 -3 -9 -7 -14
-8 -14 -1 0 6 -11 9 -25 7 -14 -1 -27 0 -29 4 -2 3 -27 6 -55 6 -28 -1 -51 2
-51 6 0 4 -9 5 -20 2 -12 -3 -20 0 -20 8 0 8 -6 5 -16 -7 -8 -10 -13 -13 -9
-6 4 8 -4 12 -29 12 -19 0 -38 5 -41 10 -5 8 -11 8 -19 1 -7 -6 -16 -8 -20 -4
-12 12 -36 12 -36 0 0 -7 -5 -5 -10 3 -5 8 -10 11 -10 7 0 -4 -10 -3 -21 4
-17 9 -20 8 -13 -3 5 -8 -3 -6 -20 5 -19 13 -31 16 -38 9 -7 -7 -19 -7 -34 -2
-13 5 -24 7 -24 4 0 -4 -6 -1 -14 5 -11 9 -16 9 -22 0 -5 -8 -3 -9 6 -4 9 6
11 4 6 -4 -6 -9 -13 -8 -27 5 -15 13 -19 14 -19 3 0 -12 -2 -12 -9 0 -6 9 -18
11 -34 7 -14 -3 -27 -1 -29 4 -2 7 -8 6 -16 -2z"/>
<path d="M5561 2647 c-8 -10 -7 -14 2 -14 8 0 14 6 14 14 0 7 -1 13 -2 13 -2
0 -8 -6 -14 -13z"/>
<path d="M333 2313 c0 -9 4 -10 14 -2 7 6 13 12 13 14 0 1 -6 2 -13 2 -8 0
-14 -6 -14 -14z"/>
<path d="M415 2160 c3 -5 8 -10 11 -10 2 0 4 5 4 10 0 6 -5 10 -11 10 -5 0 -7
-4 -4 -10z"/>
<path d="M4710 1981 c0 -6 4 -13 10 -16 6 -3 7 1 4 9 -7 18 -14 21 -14 7z"/>
<path d="M595 1871 c-3 -5 -2 -12 3 -15 5 -3 9 1 9 9 0 17 -3 19 -12 6z"/>
<path d="M4596 1787 c3 -10 9 -15 12 -12 3 3 0 11 -7 18 -10 9 -11 8 -5 -6z"/>
<path d="M667 1779 c7 -7 15 -10 18 -7 3 3 -2 9 -12 12 -14 6 -15 5 -6 -5z"/>
<path d="M736 1735 c-3 -8 0 -17 6 -21 6 -4 8 -3 4 4 -3 5 -1 12 6 14 8 3 9 6
1 11 -6 4 -13 0 -17 -8z"/>
<path d="M756 1678 c3 -5 10 -6 15 -3 13 9 11 12 -6 12 -8 0 -12 -4 -9 -9z"/>
<path d="M4515 1680 c3 -5 8 -10 11 -10 2 0 4 5 4 10 0 6 -5 10 -11 10 -5 0
-7 -4 -4 -10z"/>
<path d="M4479 1633 c-13 -16 -12 -17 4 -4 9 7 17 15 17 17 0 8 -8 3 -21 -13z"/>
<path d="M4430 1619 c0 -5 5 -7 10 -4 6 3 10 8 10 11 0 2 -4 4 -10 4 -5 0 -10
-5 -10 -11z"/>
<path d="M900 1566 c0 -2 8 -10 18 -17 15 -13 16 -12 3 4 -13 16 -21 21 -21
13z"/>
<path d="M975 1480 c3 -5 8 -10 11 -10 2 0 4 5 4 10 0 6 -5 10 -11 10 -5 0 -7
-4 -4 -10z"/>
<path d="M4920 1469 c0 -5 5 -7 10 -4 6 3 10 8 10 11 0 2 -4 4 -10 4 -5 0 -10
-5 -10 -11z"/>
<path d="M1074 1416 c1 -8 5 -18 8 -22 4 -3 5 1 4 10 -1 8 -5 18 -8 22 -4 3
-5 -1 -4 -10z"/>
<path d="M4066 1318 c3 -5 10 -6 15 -3 13 9 11 12 -6 12 -8 0 -12 -4 -9 -9z"/>
<path d="M1210 1301 c0 -6 4 -13 10 -16 6 -3 7 1 4 9 -7 18 -14 21 -14 7z"/>
<path d="M1290 1239 c0 -5 5 -7 10 -4 6 3 10 8 10 11 0 2 -4 4 -10 4 -5 0 -10
-5 -10 -11z"/>
<path d="M3930 1236 c0 -2 8 -10 18 -17 15 -13 16 -12 3 4 -13 16 -21 21 -21
13z"/>
<path d="M1414 1182 c4 -3 14 -7 22 -8 9 -1 13 0 10 4 -4 3 -14 7 -22 8 -9 1
-13 0 -10 -4z"/>
<path d="M2015 1160 c3 -5 8 -10 11 -10 2 0 4 5 4 10 0 6 -5 10 -11 10 -5 0
-7 -4 -4 -10z"/>
<path d="M1896 987 c3 -10 9 -15 12 -12 3 3 0 11 -7 18 -10 9 -11 8 -5 -6z"/>
<path d="M1926 978 c3 -5 10 -6 15 -3 13 9 11 12 -6 12 -8 0 -12 -4 -9 -9z"/>
<path d="M3375 971 c-3 -5 -2 -12 3 -15 5 -3 9 1 9 9 0 17 -3 19 -12 6z"/>
<path d="M1975 960 c-3 -5 -1 -10 4 -10 6 0 11 5 11 10 0 6 -2 10 -4 10 -3 0
-8 -4 -11 -10z"/>
<path d="M5450 966 c0 -2 7 -7 16 -10 8 -3 12 -2 9 4 -6 10 -25 14 -25 6z"/>
<path d="M5410 956 c0 -2 8 -10 18 -17 15 -13 16 -12 3 4 -13 16 -21 21 -21
13z"/>
<path d="M3250 920 c0 -5 5 -10 11 -10 5 0 7 5 4 10 -3 6 -8 10 -11 10 -2 0
-4 -4 -4 -10z"/>
<path d="M2860 916 c0 -2 7 -9 15 -16 9 -7 15 -8 15 -2 0 5 -7 12 -15 16 -8 3
-15 4 -15 2z"/>
<path d="M2926 905 c-18 -14 -18 -14 1 -12 11 0 20 7 20 14 0 7 -1 13 -1 13
-1 0 -9 -7 -20 -15z"/>
<path d="M3086 905 c-11 -8 -15 -15 -9 -15 6 0 16 7 23 15 16 19 11 19 -14 0z"/>
<path d="M3147 899 c7 -7 15 -10 18 -7 3 3 -2 9 -12 12 -14 6 -15 5 -6 -5z"/>
<path d="M4558 903 c10 -4 9 -9 -5 -20 -17 -13 -16 -13 5 -3 22 11 22 31 -1
29 -8 0 -8 -2 1 -6z"/>
<path d="M2786 882 c-2 -4 4 -8 14 -8 10 0 16 4 14 8 -3 4 -9 8 -14 8 -5 0
-11 -4 -14 -8z"/>
<path d="M2990 879 c0 -5 5 -7 10 -4 6 3 10 8 10 11 0 2 -4 4 -10 4 -5 0 -10
-5 -10 -11z"/>
<path d="M5317 873 c-4 -3 -7 -11 -7 -17 0 -6 5 -5 12 2 6 6 9 14 7 17 -3 3
-9 2 -12 -2z"/>
<path d="M2895 860 c3 -5 8 -10 11 -10 2 0 4 5 4 10 0 6 -5 10 -11 10 -5 0 -7
-4 -4 -10z"/>
<path d="M4557 849 c7 -7 15 -10 18 -7 3 3 -2 9 -12 12 -14 6 -15 5 -6 -5z"/>
<path d="M5335 840 c3 -5 8 -10 11 -10 2 0 4 5 4 10 0 6 -5 10 -11 10 -5 0 -7
-4 -4 -10z"/>
<path d="M4628 723 c7 -3 16 -2 19 1 4 3 -2 6 -13 5 -11 0 -14 -3 -6 -6z"/>
<path d="M5106 652 c-3 -5 1 -9 9 -9 8 0 12 4 9 9 -3 4 -7 8 -9 8 -2 0 -6 -4
-9 -8z"/>
<path d="M5065 630 c-4 -6 -10 -8 -15 -5 -5 3 -14 -5 -20 -17 -9 -19 -9 -21 2
-7 7 8 25 15 40 14 22 -2 26 1 17 12 -14 16 -16 16 -24 3z"/>
</g>
</svg>
