<svg id="a9f87b4f-101c-4546-a554-427de8627a28" data-name="Слой 1" xmlns="http://www.w3.org/2000/svg" viewBox="0 0 708.64 201.44"><defs><style>.b665393f-e510-4870-b892-64b2b01c2625{fill:#f4c422;}</style></defs><path class="b665393f-e510-4870-b892-64b2b01c2625" d="M288.61,187.51h-42l-6.72,19.85H211.26L251.94,95h31.7l40.67,112.41h-29Zm-7.05-21.14-13.93-41.15-13.77,41.15Z" transform="translate(-60.35 -48.52)"/><path class="b665393f-e510-4870-b892-64b2b01c2625" d="M477.16,127.14q9.84,10.08,9.85,28v52.2H459.78V158.84q0-8.64-4.56-13.37t-12.57-4.72q-8,0-12.57,4.72t-4.56,13.37v48.52H398.29V158.84q0-8.64-4.56-13.37t-12.57-4.72q-8,0-12.57,4.72T364,158.84v48.52H336.64V118H364v11.21a29.21,29.21,0,0,1,10.89-8.89,34.32,34.32,0,0,1,15.21-3.28,37,37,0,0,1,18,4.32,31.06,31.06,0,0,1,12.41,12.33,36.05,36.05,0,0,1,12.65-12,34.26,34.26,0,0,1,17.46-4.64Q467.31,117.05,477.16,127.14Z" transform="translate(-60.35 -48.52)"/><path class="b665393f-e510-4870-b892-64b2b01c2625" d="M544.65,120.57a33.93,33.93,0,0,1,16.49-3.84,37.06,37.06,0,0,1,20,5.6,38.84,38.84,0,0,1,14.17,16q5.2,10.41,5.21,24.18t-5.21,24.26A39.28,39.28,0,0,1,581.16,203a36.61,36.61,0,0,1-20,5.68,34.05,34.05,0,0,1-16.41-3.84,30.06,30.06,0,0,1-11.13-9.93V250H506.22V118H533.6v12.65A29.81,29.81,0,0,1,544.65,120.57ZM567,146.43a18.79,18.79,0,0,0-14-5.84,18.47,18.47,0,0,0-13.85,5.92q-5.68,5.93-5.69,16.18t5.69,16.17a19.14,19.14,0,0,0,27.78-.08q5.76-6,5.76-16.25T567,146.43Z" transform="translate(-60.35 -48.52)"/><path class="b665393f-e510-4870-b892-64b2b01c2625" d="M698.69,169.25h-62q.64,8.33,5.37,12.73a16.38,16.38,0,0,0,11.61,4.41q10.24,0,14.25-8.65h29.14A40,40,0,0,1,689,193.59a40.54,40.54,0,0,1-14.66,11,47,47,0,0,1-19.69,4,47.87,47.87,0,0,1-23.38-5.6,39.86,39.86,0,0,1-16-16q-5.78-10.41-5.77-24.34t5.69-24.34a39.33,39.33,0,0,1,15.93-16,51.94,51.94,0,0,1,46.6-.16,39.11,39.11,0,0,1,15.77,15.54q5.68,10.08,5.68,23.54A69.8,69.8,0,0,1,698.69,169.25ZM671.15,154a14.09,14.09,0,0,0-4.8-11.21,17.73,17.73,0,0,0-12-4.16,17.34,17.34,0,0,0-11.61,4q-4.72,4-5.85,11.37Z" transform="translate(-60.35 -48.52)"/><path class="b665393f-e510-4870-b892-64b2b01c2625" d="M753,121.29a31,31,0,0,1,16-4.24v29h-7.53q-10.25,0-15.37,4.41T741,165.89v41.47H713.58V118H741V132.9A36.06,36.06,0,0,1,753,121.29Z" transform="translate(-60.35 -48.52)"/><path class="b665393f-e510-4870-b892-64b2b01c2625" d="M193,48.52,163.4,168.14a16.58,16.58,0,0,1-16.1,12.62H122.59a8.31,8.31,0,0,0-6.64,3.32L60.35,247.5,90.87,127a16.58,16.58,0,0,1,16.07-12.52h23.92a8.31,8.31,0,0,0,6.64-3.32Z" transform="translate(-60.35 -48.52)"/></svg>